<svg width="96" height="96" viewBox="0 0 96 98" fill="none" xmlns="http://www.w3.org/2000/svg">
<path opacity="0.1" fill-rule="evenodd" clip-rule="evenodd" d="M48.024 1L6 25.3855V39.506L47.976 63.8637V63.8916L48 63.8776L48.024 63.8916V63.8637L77.719 46.6386V65.6265L48.024 82.8517V82.8313L18.281 65.5783V55.6988L6 48.5663V72.5662L47.976 96.9239V97L90 72.6145V25.3855L48 49.7572L18.2863 32.515L48.024 15.2651L70.6671 28.3735L82.9481 21.241L48.024 1ZM48.072 41.9156L35.791 34.7831L47.9761 27.6987L60.257 34.8313L48.072 41.9156Z" fill="url(#paint0_linear_494_3324)"/>
<path opacity="0.4" fill-rule="evenodd" clip-rule="evenodd" d="M47.9997 0.421509L82.9257 20.7278C83.1645 20.8666 83.2455 21.1726 83.1067 21.4114C82.9679 21.6501 82.6618 21.7311 82.4231 21.5923L48.0003 1.57861L6.5 25.7674V38.9201C6.5 39.1962 6.27614 39.4201 6 39.4201C5.72386 39.4201 5.5 39.1962 5.5 38.9201V25.1928L47.9997 0.421509ZM90 24.9801C90.2761 24.9801 90.5 25.2039 90.5 25.4801V72.8074L48 97.5788L5.5 72.8074V49.4801C5.5 49.2039 5.72386 48.9801 6 48.9801C6.27614 48.9801 6.5 49.2039 6.5 49.4801V72.2328L48 96.4213L89.5 72.2328V25.4801C89.5 25.2039 89.7239 24.9801 90 24.9801Z" fill="white"/>
<path fill-rule="evenodd" clip-rule="evenodd" d="M38.667 33C38.667 30.5246 39.6503 28.1506 41.4007 26.4003C43.151 24.65 45.525 23.6666 48.0003 23.6666C50.4757 23.6666 52.8496 24.65 54.6 26.4003C56.3503 28.1506 57.3337 30.5246 57.3337 33V41C57.3337 42.2256 57.0922 43.4393 56.6232 44.5717C56.1542 45.704 55.4667 46.7329 54.6 47.5996C53.7333 48.4663 52.7044 49.1538 51.572 49.6228C50.4397 50.0919 49.226 50.3333 48.0003 50.3333C46.7747 50.3333 45.561 50.0919 44.4286 49.6228C43.2962 49.1538 42.2673 48.4663 41.4007 47.5996C40.534 46.7329 39.8465 45.704 39.3774 44.5717C38.9084 43.4393 38.667 42.2256 38.667 41V33ZM49.3337 30.3333C49.3337 29.9797 49.1932 29.6405 48.9431 29.3905C48.6931 29.1404 48.3539 29 48.0003 29C47.6467 29 47.3076 29.1404 47.0575 29.3905C46.8075 29.6405 46.667 29.9797 46.667 30.3333V35.6666C46.667 36.0202 46.8075 36.3594 47.0575 36.6094C47.3076 36.8595 47.6467 37 48.0003 37C48.3539 37 48.6931 36.8595 48.9431 36.6094C49.1932 36.3594 49.3337 36.0202 49.3337 35.6666V30.3333Z" fill="white"/>
<path d="M25.938 74.168C25.3967 74.168 24.916 74.112 24.496 74C24.076 73.8787 23.712 73.7153 23.404 73.51C23.096 73.2953 22.844 73.062 22.648 72.81C22.452 72.5487 22.3073 72.2733 22.214 71.984L23.348 71.592C23.488 72.0027 23.768 72.362 24.188 72.67C24.6173 72.9687 25.14 73.118 25.756 73.118C26.512 73.118 27.1047 72.9687 27.534 72.67C27.9633 72.3713 28.178 71.9747 28.178 71.48C28.178 71.0227 27.9867 70.654 27.604 70.374C27.2213 70.0847 26.7173 69.8607 26.092 69.702L25.014 69.422C24.5753 69.31 24.1693 69.1467 23.796 68.932C23.432 68.708 23.138 68.428 22.914 68.092C22.6993 67.7467 22.592 67.336 22.592 66.86C22.592 65.9733 22.8767 65.2827 23.446 64.788C24.0247 64.284 24.8553 64.032 25.938 64.032C26.582 64.032 27.1373 64.1393 27.604 64.354C28.0707 64.5593 28.4487 64.8253 28.738 65.152C29.0367 65.4693 29.2467 65.8147 29.368 66.188L28.248 66.58C28.0707 66.1133 27.772 65.7493 27.352 65.488C26.932 65.2173 26.4233 65.082 25.826 65.082C25.2007 65.082 24.7013 65.236 24.328 65.544C23.964 65.8427 23.782 66.2533 23.782 66.776C23.782 67.224 23.9267 67.5693 24.216 67.812C24.5053 68.0453 24.8833 68.218 25.35 68.33L26.428 68.596C27.38 68.82 28.108 69.1933 28.612 69.716C29.1253 70.2293 29.382 70.7847 29.382 71.382C29.382 71.8953 29.2513 72.3667 28.99 72.796C28.7287 73.216 28.3413 73.552 27.828 73.804C27.324 74.0467 26.694 74.168 25.938 74.168ZM35.5316 74.168C34.5983 74.168 33.7723 73.9533 33.0536 73.524C32.3349 73.0853 31.7703 72.488 31.3596 71.732C30.9489 70.9667 30.7436 70.0893 30.7436 69.1C30.7436 68.1107 30.9443 67.238 31.3456 66.482C31.7563 65.7167 32.3163 65.1193 33.0256 64.69C33.7443 64.2513 34.5656 64.032 35.4896 64.032C36.0776 64.032 36.6423 64.1393 37.1836 64.354C37.7249 64.5593 38.2103 64.8533 38.6396 65.236C39.0689 65.6093 39.4003 66.0433 39.6336 66.538L38.6116 67.056C38.4249 66.664 38.1683 66.3233 37.8416 66.034C37.5149 65.7447 37.1509 65.5207 36.7496 65.362C36.3483 65.194 35.9283 65.11 35.4896 65.11C34.8083 65.11 34.1969 65.2827 33.6556 65.628C33.1143 65.964 32.6896 66.4307 32.3816 67.028C32.0829 67.6253 31.9336 68.316 31.9336 69.1C31.9336 69.884 32.0876 70.5793 32.3956 71.186C32.7036 71.7927 33.1283 72.2687 33.6696 72.614C34.2203 72.95 34.8409 73.118 35.5316 73.118C35.9796 73.118 36.4043 73.0293 36.8056 72.852C37.2069 72.6653 37.5663 72.4133 37.8836 72.096C38.2103 71.7787 38.4669 71.4147 38.6536 71.004L39.6896 71.522C39.4469 72.0353 39.1109 72.4927 38.6816 72.894C38.2616 73.2953 37.7763 73.608 37.2256 73.832C36.6843 74.056 36.1196 74.168 35.5316 74.168ZM41.4915 74V64.2H44.6835C45.3181 64.2 45.8781 64.326 46.3635 64.578C46.8581 64.83 47.2408 65.18 47.5115 65.628C47.7915 66.076 47.9315 66.5893 47.9315 67.168C47.9315 67.7467 47.7821 68.26 47.4835 68.708C47.1848 69.156 46.7788 69.5107 46.2655 69.772C45.7521 70.024 45.1735 70.15 44.5295 70.15H42.6815V74H41.4915ZM47.0215 74L44.6695 69.982L45.6075 69.366L48.3235 74H47.0215ZM42.6815 69.058H44.8515C45.2061 69.058 45.5235 68.9787 45.8035 68.82C46.0835 68.652 46.3075 68.428 46.4755 68.148C46.6528 67.8587 46.7415 67.532 46.7415 67.168C46.7415 66.608 46.5455 66.1553 46.1535 65.81C45.7708 65.4553 45.2715 65.278 44.6555 65.278H42.6815V69.058ZM54.4271 74.168C53.4845 74.168 52.6491 73.9533 51.9211 73.524C51.1931 73.0947 50.6238 72.4973 50.2131 71.732C49.8025 70.9667 49.5971 70.0893 49.5971 69.1C49.5971 68.1013 49.7978 67.224 50.1991 66.468C50.6098 65.7027 51.1745 65.1053 51.8931 64.676C52.6118 64.2467 53.4425 64.032 54.3851 64.032C55.3278 64.032 56.1585 64.2513 56.8771 64.69C57.6051 65.1193 58.1698 65.7167 58.5711 66.482C58.9725 67.238 59.1731 68.1107 59.1731 69.1C59.1731 70.0893 58.9725 70.9667 58.5711 71.732C58.1698 72.4973 57.6098 73.0947 56.8911 73.524C56.1818 73.9533 55.3605 74.168 54.4271 74.168ZM54.4271 73.09C55.1271 73.09 55.7431 72.922 56.2751 72.586C56.8071 72.2407 57.2225 71.7693 57.5211 71.172C57.8291 70.5747 57.9831 69.884 57.9831 69.1C57.9831 68.3253 57.8291 67.6393 57.5211 67.042C57.2131 66.4353 56.7885 65.964 56.2471 65.628C55.7151 65.2827 55.0945 65.11 54.3851 65.11C53.6851 65.11 53.0645 65.2827 52.5231 65.628C51.9818 65.964 51.5571 66.4353 51.2491 67.042C50.9411 67.6393 50.7871 68.3253 50.7871 69.1C50.7871 69.884 50.9411 70.5747 51.2491 71.172C51.5571 71.7693 51.9865 72.2407 52.5371 72.586C53.0878 72.922 53.7178 73.09 54.4271 73.09ZM61.1243 74V64.2H62.3143V72.922H66.9343V74H61.1243ZM68.3977 74V64.2H69.5877V72.922H74.2077V74H68.3977Z" fill="white"/>
<defs>
<linearGradient id="paint0_linear_494_3324" x1="34.5" y1="24" x2="69" y2="83" gradientUnits="userSpaceOnUse">
<stop stop-color="white"/>
<stop offset="1" stop-color="white" stop-opacity="0.4"/>
</linearGradient>
</defs>
</svg>
