<svg width="168" height="64" viewBox="0 0 168 64" fill="none" xmlns="http://www.w3.org/2000/svg">
<g clip-path="url(#clip0_221_5754)">
<path d="M31.7975 26.2607C32.3644 26.2607 32.9502 26.2607 33.5171 26.2607C33.5171 26.604 33.5171 26.8328 33.5171 27.0807C31.4385 27.0807 29.3787 27.0807 27.3 27.0807C27.3 26.8518 27.3 26.5086 27.3 26.2607C27.867 26.2607 28.4528 26.2607 29.0197 26.2607C29.0197 26.0319 29.0197 25.9175 29.0197 25.8031C29.0197 22.3137 29.0197 18.9578 29.0197 15.4684C29.0197 15.1251 28.9063 15.0107 28.5661 15.0107C28.1126 15.0107 27.7536 15.0107 27.3 15.0107C27.3 14.6675 27.3 14.4387 27.3 14.0764C27.4134 14.0764 27.5268 14.0764 27.6402 14.0764C29.7188 14.0764 31.7786 14.0764 33.9706 14.0764C34.7832 14.0764 35.5769 14.1908 36.2761 14.4196C37.7689 14.9917 38.6949 16.3836 38.5815 18.0235C38.4681 19.6442 37.4288 20.8074 35.8225 21.1506C34.6698 21.3794 33.5171 21.3794 32.4967 21.3794C31.9298 21.3794 31.6841 21.4938 31.6841 21.9514C31.6841 23.229 31.6841 24.3921 31.6841 25.6696C31.7975 25.8031 31.7975 26.0319 31.7975 26.2607ZM31.6841 14.8963C31.6841 16.8603 31.6841 18.729 31.6841 20.4641C32.4967 20.4641 33.2904 20.5785 34.1029 20.4641C35.1422 20.3497 35.4824 19.8921 35.5958 18.8434C35.5958 18.0235 35.5958 17.337 35.5958 16.5171C35.4824 15.6972 35.0289 15.2396 34.2163 15.1251C33.4037 15.0107 32.6101 15.0107 31.6841 14.8963ZM52.6218 37.6251C52.8486 37.3963 53.1887 37.0531 53.6612 36.6908C53.7745 36.5764 54.0013 36.462 54.1147 36.5764C54.2281 36.5764 54.3414 36.9196 54.3414 37.034C54.3414 38.426 54.3414 39.8179 54.3414 41.2099C54.3414 41.4387 54.3414 41.6675 53.8879 41.6675C53.5478 41.6675 53.321 41.6675 53.1887 41.2099C53.0754 40.6379 52.962 39.9323 52.6218 39.3603C52.0549 38.0828 51.129 37.2629 49.6361 37.3963C48.1433 37.3963 46.8772 37.9684 46.0646 39.4938C45.8379 39.837 45.7245 40.3137 45.6111 40.7713C45.3843 42.6209 45.271 44.4896 45.7245 46.3391C46.178 48.3031 47.9165 49.4662 49.9763 49.2374C51.6959 49.0086 53.0754 47.6167 53.1887 45.6336C53.1887 45.2904 53.4155 45.176 53.7556 45.176C54.0958 45.176 54.0958 45.4048 54.0958 45.748C53.9824 47.712 52.4896 49.4662 50.5243 50.0383C48.4456 50.4959 45.2332 49.9239 43.6269 47.2544C42.5876 45.5192 42.3608 43.6506 42.8144 41.6866C43.6269 37.5107 47.7653 36.1188 50.4109 36.8052C51.2424 36.9196 51.9226 37.2819 52.6218 37.6251ZM97.5774 14.4196C97.5774 14.6485 97.5774 14.8773 97.5774 15.2396C97.1239 15.2396 96.7649 15.2396 96.3114 15.2396C95.9712 15.2396 95.8578 15.354 95.8578 15.6972C95.8578 16.9747 95.8578 18.3667 95.8578 19.6442C95.8578 19.873 95.8578 20.1018 96.198 20.1018C97.5774 20.1018 98.9569 20.1018 100.336 20.1018C100.336 18.4811 100.336 16.9747 100.336 15.2205C99.7695 15.2205 99.1837 15.2205 98.6168 15.2205C98.6168 14.8773 98.6168 14.6485 98.6168 14.4006C100.563 14.4006 102.642 14.4006 104.588 14.4006C104.588 14.6294 104.588 14.8582 104.588 15.2205C104.135 15.2205 103.776 15.2205 103.322 15.2205C102.982 15.2205 102.869 15.3349 102.869 15.6781C102.869 19.034 102.869 22.5235 102.869 25.8985C102.869 26.2417 102.982 26.3561 103.322 26.2417C103.662 26.2417 104.021 26.2417 104.248 26.2417C104.588 26.2417 104.588 26.4705 104.588 26.6993C104.588 27.0425 104.475 27.0425 104.248 27.0425C102.415 27.0425 100.563 27.0425 98.7301 27.0425H98.6168C98.39 26.2226 98.5034 26.2226 99.1837 26.2226C99.4104 26.2226 99.7506 26.2226 99.9962 26.2226H100.11C100.11 26.1082 100.11 25.9938 100.11 25.8794C100.11 24.373 100.11 22.9811 100.11 21.4747C100.11 21.1315 99.9962 20.9027 99.5427 21.0171C98.39 21.0171 97.2373 21.0171 95.9712 21.0171C95.6311 21.0171 95.5177 21.1315 95.5177 21.4747C95.5177 22.9811 95.5177 24.373 95.5177 25.8794C95.5177 26.2226 95.6311 26.337 95.9712 26.337C96.198 26.337 96.4247 26.337 96.5381 26.337C97.2373 26.337 97.2373 26.337 97.2373 27.1569C95.2909 27.1569 93.2123 27.1569 91.2659 27.1569C91.2659 26.9281 91.2659 26.6993 91.2659 26.337C91.606 26.337 92.0785 26.337 92.532 26.337C92.8721 26.337 92.9855 26.2226 92.9855 25.8794C92.9855 22.5235 92.9855 19.1485 92.9855 15.659C92.9855 15.3158 92.8721 15.2014 92.532 15.2014C92.1918 15.2014 91.7194 15.2014 91.2659 15.2014C91.2659 14.9726 91.2659 14.7438 91.2659 14.3815C93.5524 14.4196 95.4988 14.4196 97.5774 14.4196ZM40.8869 20.6929C41.0003 18.5955 41.4538 16.8603 43.0789 15.354C45.4977 13.1421 51.0156 13.39 52.3951 18.1379C52.962 20.1018 52.962 22.0849 52.0549 23.9345C51.0156 26.2607 48.5968 27.5383 45.9512 27.176C43.4191 26.8328 41.5861 25.0785 41.1136 22.5425C41.0003 21.9705 40.8869 21.3794 40.8869 20.6929ZM43.7592 20.5785C43.7592 21.284 43.7592 21.9705 43.8726 22.676C43.986 23.9535 44.3261 25.0023 45.2521 25.9175C46.178 26.8518 47.6709 26.8518 48.4645 25.9175C48.918 25.3455 49.3905 24.64 49.6172 23.9535C50.0708 22.3328 50.0708 20.712 49.844 19.0722C49.7306 18.2523 49.6172 17.4514 49.2771 16.7459C48.8236 15.6972 48.011 15.0107 46.7449 15.0107C45.5922 15.0107 44.7985 15.7162 44.3261 16.7459C43.6458 17.7946 43.7592 19.1866 43.7592 20.5785ZM127.472 15.2396C127.472 14.8963 127.472 14.7819 127.472 14.4196C127.699 14.4196 127.926 14.4196 128.285 14.4196C129.211 14.4196 130.231 14.4196 131.157 14.4196C131.611 14.4196 131.97 14.534 132.196 14.9917C134.029 17.5468 135.881 20.1018 137.714 22.6569C137.714 22.5425 137.714 22.6569 137.941 22.7713C137.941 22.5425 138.054 22.4281 138.054 22.3137C138.054 20.2162 138.054 18.0235 138.054 15.926C138.054 15.4684 137.941 15.2205 137.488 15.2205C137.147 15.2205 136.807 15.2205 136.335 15.1061C136.335 14.8773 136.335 14.6485 136.335 14.2862C137.828 14.2862 139.207 14.2862 140.7 14.2862C140.7 14.515 140.7 14.7438 140.7 15.1061C140.247 15.1061 140.02 15.2205 139.661 15.2205C139.207 15.2205 138.962 15.4493 138.962 16.0404C138.962 19.5298 138.962 23.0001 138.962 26.4896C138.962 26.7184 138.848 27.0616 138.621 27.0616C138.395 27.0616 138.168 26.9472 137.922 26.8328C137.809 26.8328 137.809 26.7184 137.809 26.604C135.73 23.7057 133.67 20.8073 131.478 17.909C131.138 17.337 130.666 16.8603 130.212 16.1739C130.212 16.4027 130.212 16.6315 130.212 16.7459C130.212 19.6442 130.212 22.5425 130.212 25.4408C130.212 26.0129 130.326 26.2607 130.893 26.2607C131.006 26.2607 131.119 26.2607 131.233 26.2607C131.913 26.2607 131.913 26.2607 131.913 27.0807C130.42 27.0807 129.041 27.0807 127.548 27.0807C127.321 26.3751 127.321 26.2607 128.115 26.2607C129.154 26.1463 129.154 26.1463 129.154 25.0976C129.154 21.9705 129.154 18.8243 129.154 15.8116C129.154 15.354 129.041 15.1061 128.587 15.2396C128.171 15.2396 127.812 15.2396 127.472 15.2396ZM74.8067 48.9896C75.3736 48.9896 75.7327 48.9896 76.1862 48.9896C76.5264 48.9896 76.5263 49.2184 76.5263 49.4472C76.5263 49.676 76.5264 49.9048 76.1862 49.9048C74.3532 49.9048 72.6147 49.9048 70.7817 49.9048C70.4416 49.9048 70.4416 49.7904 70.4416 49.4472C70.4416 49.2184 70.4416 48.9896 70.7817 48.9896C71.2352 48.9896 71.5943 48.9896 72.1612 48.9896C72.1612 48.7607 72.1612 48.5319 72.1612 48.4175C72.1612 45.176 72.1612 41.9154 72.1612 38.6739C72.1612 38.2162 72.0478 37.9684 71.5943 37.9684C71.3675 37.9684 71.1407 37.9684 70.8951 37.9684C70.5549 37.9684 70.4416 37.854 70.4416 37.5107C70.4416 37.1675 70.5549 37.0531 70.8951 37.0531C73.0871 37.0531 75.2603 37.0531 77.4523 37.0531C78.8318 37.0531 80.2112 37.5107 80.9104 38.7883C82.1765 40.8857 81.0238 43.4218 78.605 43.8985C77.5657 44.1273 76.413 44.1273 75.3925 44.1273C74.939 44.1273 74.8256 44.2417 74.8256 44.6993C74.8067 46.2057 74.8067 47.4832 74.8067 48.9896ZM74.6934 40.6379C74.6934 41.4578 74.6934 42.1442 74.6934 42.9641C74.6934 43.1929 74.6934 43.4218 75.0335 43.4218C75.7327 43.4218 76.413 43.4218 77.1122 43.3073C78.0381 43.1929 78.4916 42.7353 78.4916 41.801C78.4916 40.9811 78.4916 40.1802 78.4916 39.3603C78.3782 38.426 78.0381 37.9684 77.1122 37.854C76.413 37.7396 75.8461 37.854 75.1658 37.7396C74.8256 37.7396 74.7122 37.854 74.7122 38.1972C74.6934 39.1315 74.6934 39.9514 74.6934 40.6379ZM94.9319 38.0828C94.2327 38.1972 93.439 38.1972 92.8532 38.426C92.2863 38.5404 91.9273 38.998 91.8139 39.5891C91.7005 40.0468 91.5871 40.6379 91.5871 41.0955C91.4738 41.801 91.4738 41.801 90.6612 41.6675C90.6612 41.3243 90.6612 41.0955 90.6612 40.7332C90.7746 39.6845 90.888 38.6357 90.888 37.6061C90.888 37.3773 90.888 37.1485 91.2281 37.1485C94.6862 37.1485 98.0121 37.1485 101.47 37.1485C101.47 37.1485 101.584 37.1485 101.697 37.2629C101.81 38.6548 101.924 40.1612 102.037 41.5531C101.225 41.7819 101.225 41.7819 101.111 40.9811C100.998 40.6379 100.884 40.2756 100.884 39.8179C100.658 38.7692 99.9585 38.1972 98.938 38.1972C98.4845 38.1972 98.1255 38.1972 97.6719 38.1972C97.6719 41.801 97.6719 45.3857 97.6719 48.9896C98.4845 48.9896 99.2782 48.9896 100.091 48.9896C100.091 49.3328 100.091 49.5616 100.091 49.8095C97.5585 49.8095 95.1397 49.8095 92.6076 49.8095C92.6076 49.5807 92.6076 49.3518 92.6076 48.9896C93.4201 48.9896 94.2138 48.9896 95.0264 48.9896C94.9319 45.4048 94.9319 41.801 94.9319 38.0828ZM118.629 27.0807C116.682 27.0807 114.83 27.0807 112.997 27.0807C112.771 26.2607 112.884 26.2607 113.564 26.2607C113.791 26.2607 114.018 26.2607 114.377 26.2607C114.037 25.4408 113.81 24.64 113.564 23.9345C113.564 23.8201 113.337 23.8201 113.224 23.8201C112.071 23.8201 110.919 23.8201 109.766 23.8201C109.653 23.8201 109.426 23.9345 109.426 24.0489C109.199 24.7544 108.972 25.4408 108.727 26.1463C109.067 26.1463 109.293 26.2607 109.539 26.2607C110.238 26.2607 110.238 26.4896 110.106 27.0807C108.727 27.0807 107.46 27.0807 106.081 27.0807C105.968 26.2607 105.968 26.2607 106.648 26.2607C107.347 26.2607 107.687 26.0319 107.914 25.3264C109.067 21.837 110.333 18.3667 111.599 14.7629C111.712 14.4196 111.826 14.0574 112.298 14.0574C112.752 14.0574 112.997 14.2862 113.111 14.7629C114.037 17.5468 115.057 20.3307 115.983 23.1146C116.323 24.0489 116.682 24.9641 116.909 25.8985C117.022 26.2417 117.249 26.3561 117.608 26.3561C117.721 26.3561 117.835 26.3561 117.948 26.3561C118.742 26.2607 118.742 26.2607 118.629 27.0807ZM113.337 22.7713C112.771 21.1506 112.185 19.6442 111.731 18.0044H111.618C111.051 19.5107 110.578 21.1315 110.012 22.6379C111.032 22.7713 112.071 22.7713 113.337 22.7713ZM63.3175 48.9896C63.8844 48.9896 64.3568 48.9896 64.8103 48.9896C64.4702 48.1696 64.2434 47.3688 63.9977 46.6633C63.9977 46.5489 63.771 46.4345 63.6576 46.4345C62.5049 46.4345 61.3522 46.4345 60.1995 46.4345C60.0861 46.4345 59.8593 46.5489 59.7459 46.6633C59.5192 47.3688 59.2924 47.9408 59.0468 48.7607C59.5003 48.8751 59.9727 48.8751 60.4262 48.9896C60.4262 49.2184 60.4262 49.4472 60.4262 49.8095C59.0468 49.8095 57.7807 49.8095 56.4012 49.8095C56.1744 48.9896 56.1744 48.9896 56.9681 48.9896C57.8941 48.9896 57.8941 48.9896 58.2342 48.0552C59.5003 44.5658 60.653 41.0955 61.9191 37.4917C62.0325 37.1485 62.1458 36.7862 62.7316 36.7862C63.2986 36.7862 63.4308 37.1294 63.5442 37.4917C64.8103 41.0955 66.0764 44.7946 67.3425 48.3985C67.4559 48.8561 67.6826 48.9705 68.155 48.9705C68.3818 48.9705 68.4952 48.9705 68.722 48.9705C69.0621 48.9705 69.0621 49.1993 69.0621 49.4281C69.0621 49.6569 68.9487 49.8857 68.722 49.8857C67.1157 49.8857 65.3961 49.8857 63.771 49.8857C63.0718 49.8095 63.4308 49.3518 63.3175 48.9896ZM60.1995 45.5192C61.3522 45.5192 62.5049 45.5192 63.6576 45.5192C63.0907 43.8985 62.5049 42.3921 62.0514 40.7523H61.938C61.3522 42.3921 60.7853 43.8985 60.1995 45.5192ZM108.727 49.8095C108.727 49.5807 108.727 49.3518 108.727 48.9896C109.18 48.9896 109.653 48.9896 110.219 48.9896C109.879 48.1696 109.653 47.4832 109.407 46.6633C109.407 46.5489 109.18 46.4345 108.953 46.4345C107.801 46.4345 106.761 46.4345 105.628 46.4345C105.514 46.4345 105.287 46.5489 105.174 46.7777C104.947 47.3497 104.72 48.0552 104.475 48.8751C104.928 48.9895 105.401 48.9896 105.854 49.104C105.854 49.3328 105.854 49.5616 105.854 49.9239C104.475 49.9239 103.095 49.9239 101.829 49.9239C101.602 49.2184 101.602 49.104 102.396 49.104C103.322 49.104 103.322 49.104 103.662 48.1696C104.928 44.6802 106.081 41.2099 107.347 37.7205C107.46 37.3773 107.574 37.015 108.16 37.015C108.727 37.015 108.859 37.3582 108.972 37.7205C110.238 41.3243 111.504 45.0235 112.771 48.6273C112.884 48.9705 113.111 49.1993 113.47 49.0849C113.583 49.0849 113.81 49.0849 113.923 49.0849C114.263 49.0849 114.49 49.0849 114.49 49.5425C114.49 50.0001 114.263 50.0001 113.923 50.0001C112.317 50.0001 110.711 50.0001 109.199 50.0001C109.086 49.8095 108.972 49.8095 108.727 49.8095ZM107.479 40.8667H107.366C106.799 42.373 106.327 43.9938 105.76 45.5001C106.912 45.5001 108.065 45.5001 109.218 45.5001C108.5 43.8985 107.933 42.3921 107.479 40.8667ZM71.3486 20.6929C72.3879 18.8434 73.295 17.2035 74.3343 15.354C73.8808 15.2396 73.5217 15.2396 73.0682 15.1251C73.0682 14.8963 73.0682 14.6675 73.0682 14.3052C74.4477 14.3052 75.7138 14.3052 77.0933 14.3052C77.0933 14.534 77.0933 14.7629 77.0933 15.0107L76.9799 15.1251C75.8272 15.0107 75.2603 15.5828 74.7878 16.5171C73.9753 18.2523 72.9548 19.873 72.0289 21.5129C71.9155 21.7417 71.8021 21.9705 71.8021 22.2184C71.8021 23.3815 71.8021 24.5446 71.8021 25.7078C71.8021 26.051 71.9155 26.1654 72.2557 26.1654C72.4824 26.1654 72.7092 26.1654 72.8226 26.1654C73.5217 26.1654 73.5217 26.1654 73.3895 26.9853C71.4431 26.9853 69.4778 26.9853 67.5314 26.9853C67.5314 26.7565 67.5314 26.5277 67.5314 26.1654C67.985 26.1654 68.4574 26.1654 68.7975 26.1654C69.0243 26.1654 69.2511 26.051 69.2511 25.8222C69.2511 24.659 69.2511 23.3815 69.2511 22.2184C69.2511 21.9896 69.1377 21.8751 69.0243 21.6463C67.8716 19.5489 66.7189 17.5849 65.5662 15.6209C65.3394 15.3921 64.9993 15.2777 64.7536 15.2777C64.4135 15.1633 64.0544 15.2777 63.7143 15.2777C63.7143 15.0489 63.7143 14.8201 63.7143 14.4578C65.6607 14.4578 67.5126 14.4578 69.4589 14.4578C69.4589 14.6866 69.4589 14.9154 69.4589 15.2777C69.0054 15.2777 68.6464 15.2777 68.0795 15.3921C69.2889 17.0891 70.2148 18.8434 71.3486 20.6929ZM89.7541 16.6315C89.7541 17.337 89.7541 18.0235 89.7541 18.5955C89.7541 18.9387 89.7541 19.1675 89.3006 19.1675C88.9605 19.1675 88.7337 19.0531 88.7337 18.7099C88.6203 17.5468 88.1668 16.3836 87.1275 15.6972C85.4079 14.3052 82.5355 15.2396 81.723 17.4324C81.4962 18.3667 81.3828 19.3963 81.3828 20.3307C81.3828 21.4938 81.4962 22.7713 81.8364 23.9345C82.2899 25.6696 84.0284 26.604 85.8614 26.4896C87.581 26.2607 88.8471 24.8688 88.9605 23.1336C88.9605 22.7904 89.0739 22.5616 89.5274 22.5616C89.9809 22.5616 89.8675 22.9048 89.8675 23.1336C89.7541 24.9832 88.3747 26.623 86.4094 27.1951C83.7638 27.9006 80.6648 26.623 79.2853 24.1824C77.9058 21.6273 77.9058 16.8794 81.7041 14.8963C83.6505 13.8476 85.8425 13.6188 87.8078 15.0107C87.9212 15.1251 88.1479 15.0107 88.2613 15.0107C88.4881 14.7819 88.7148 14.5531 89.0739 14.3052C89.1872 14.3052 89.414 14.0764 89.5274 14.1908C89.6408 14.1908 89.7541 14.534 89.7541 14.6485C89.7541 15.354 89.7541 15.926 89.7541 16.6315ZM125.526 44.8137C125.299 46.4345 125.186 47.9408 124.959 49.5807C124.959 49.6951 124.619 49.8095 124.392 49.8095C122.087 49.8095 119.8 49.8095 117.495 49.8095C117.155 49.8095 116.796 49.8095 116.455 49.8095C115.756 49.8095 115.756 49.8095 115.888 48.9896C116.455 48.9896 116.928 48.9896 117.495 48.9896C117.495 48.7607 117.495 48.5319 117.495 48.4175C117.495 45.176 117.495 41.801 117.495 38.5595C117.495 38.1018 117.381 37.854 116.928 37.9874C116.814 37.9874 116.588 37.9874 116.474 37.9874C115.662 37.9874 115.662 37.9874 115.907 37.1675C117.986 37.1675 120.159 37.1675 122.238 37.1675C122.465 37.9874 122.351 37.9874 121.671 37.9874C121.217 37.9874 120.745 37.9874 120.178 37.9874C120.178 41.7057 120.178 45.2904 120.178 48.8942C122.257 49.3518 123.863 48.4366 124.316 46.4535C124.43 46.1103 124.43 45.748 124.543 45.4048C124.713 44.6993 124.713 44.5849 125.526 44.8137ZM64.1111 22.0849C63.8844 23.7057 63.771 25.4408 63.5442 27.0807C60.4451 27.0807 57.4405 27.0807 54.4548 27.0807C54.4548 26.8518 54.4548 26.623 54.4548 26.2607C54.9083 26.2607 55.2674 26.2607 55.7209 26.2607C56.0611 26.2607 56.1744 26.1463 56.1744 25.8031C56.1744 22.3137 56.1744 18.8434 56.1744 15.4684C56.1744 15.354 56.1744 15.354 56.1744 15.2396C55.6075 15.2396 55.1351 15.2396 54.5682 15.2396C54.5682 14.8963 54.5682 14.6675 54.5682 14.4196C56.7602 14.4196 58.9334 14.4196 61.1254 14.4196C61.1254 14.6485 61.1254 14.8773 61.1254 15.2396C60.4262 15.2396 59.7459 15.2396 58.9334 15.2396C58.9334 15.4684 58.9334 15.6972 58.9334 15.8116C58.9334 19.0531 58.9334 22.4281 58.9334 25.6696C58.9334 26.1273 59.0468 26.2417 59.5003 26.2417C61.8057 26.2417 62.8261 25.3074 63.2986 23.0001C63.2986 22.8857 63.4119 22.7713 63.4119 22.6569C63.1852 21.9705 63.5442 21.9705 64.1111 22.0849ZM82.9702 37.9684C82.9702 37.6251 82.9702 37.3963 82.9702 37.1485C85.0488 37.1485 87.1086 37.1485 89.1872 37.1485C89.1872 37.3773 89.1872 37.6061 89.1872 37.9684C88.7337 37.9684 88.2613 37.9684 87.8078 37.9684C87.581 37.9684 87.3542 38.0828 87.3542 38.3116C87.3542 41.801 87.3542 45.2713 87.3542 48.7607C87.3542 48.8751 87.3542 48.8751 87.4676 48.9896C88.0345 48.9896 88.6203 48.9896 89.1872 48.9896C89.1872 49.3328 89.1872 49.5616 89.1872 49.8095C87.1086 49.8095 85.0488 49.8095 82.9702 49.8095C82.9702 49.5807 82.9702 49.3518 82.9702 48.9896C83.4237 48.9896 83.8961 48.9896 84.3496 48.9896C84.6898 48.9896 84.6898 48.8751 84.6898 48.6463C84.6898 45.2904 84.6898 41.801 84.6898 38.426C84.6898 38.0828 84.5764 37.9684 84.2363 37.9684C83.8961 37.9684 83.4426 37.9684 82.9702 37.9684ZM120.008 15.2396C120.008 14.8963 120.008 14.6675 120.008 14.4196C120.235 14.4196 120.462 14.4196 120.575 14.4196C122.181 14.4196 123.901 14.4196 125.526 14.4196C126.206 14.3052 126.206 14.3052 126.206 15.2396C125.979 15.2396 125.639 15.2396 125.28 15.2396C125.053 15.2396 124.713 15.2396 124.354 15.2396C124.354 15.4684 124.354 15.6972 124.354 15.8116C124.354 19.0531 124.354 22.3137 124.354 25.6696C124.354 26.2417 124.468 26.3751 125.053 26.2417C125.167 26.2417 125.394 26.2417 125.507 26.2417C126.187 26.2417 126.187 26.2417 126.187 27.0616C124.109 27.0616 122.049 27.0616 119.97 27.0616C119.857 26.2417 119.857 26.2417 120.669 26.2417C121.822 26.2417 121.822 26.2417 121.822 25.0785C121.822 21.9514 121.822 18.8052 121.822 15.7925C121.822 15.3349 121.709 15.087 121.255 15.2205C120.802 15.2396 120.348 15.2396 120.008 15.2396Z" fill="white"/>
</g>
<defs>
<clipPath id="clip0_221_5754">
<rect width="113.4" height="36" fill="white" transform="translate(27.3 14)"/>
</clipPath>
</defs>
</svg>
