<svg width="168" height="64" viewBox="0 0 168 64" fill="none" xmlns="http://www.w3.org/2000/svg">
<g clip-path="url(#clip0_221_5747)">
<path d="M43.4477 33.4811C47.3504 31.9784 50.4987 28.6919 51.5517 24.6C51.7525 23.8108 51.4865 22.4541 50.5801 21.4487C49.6465 20.4108 48.3763 20.0973 47.0519 19.8487C47.0302 19.8432 47.0193 19.827 47.0193 19.8054C47.0193 19.4 47.0085 19.3892 47.0519 19.3892C56.464 19.3892 56.464 19.427 56.464 19.3297C56.464 19.3081 56.4749 19.2973 56.4966 19.2973C56.9797 19.2973 56.9688 19.2865 56.9797 19.3189C57.7179 21.4703 58.8903 23.4703 60.3233 25.2595C62.1199 27.4973 63.8515 28.4324 66.5275 29.1351C67.9876 29.5189 69.5346 29.4973 71.0055 29.2216C71.0435 29.2162 71.0653 29.1838 71.0598 29.146C69.3989 19.1243 60.3884 12.0487 50.211 12.946C40.1964 13.827 32.6243 22.1405 32.5483 32.1081C32.5483 32.1351 32.5592 32.1568 32.5809 32.173C35.9734 34.4541 40.2941 34.6973 43.4477 33.4811Z" fill="white"/>
<path d="M52.5341 22.4162C52.5233 32.8973 52.4364 26.4487 52.4527 43.9027C52.4527 44.9946 52.507 46.0757 52.6101 47.1568C52.7567 48.7514 53.332 50.3838 54.8085 51.2324C54.8247 51.2433 54.841 51.2433 54.8627 51.2433C58.1141 50.7351 61.0452 49.4919 63.6561 47.5243C63.6778 47.5081 63.6832 47.4865 63.6723 47.4595C60.1984 39.4324 52.545 22.2919 52.5341 22.4162Z" fill="white"/>
<path d="M94.3566 23.827C94.3404 23.827 94.3241 23.8379 94.3132 23.8487C94.0418 24.2595 93.7107 24.6162 93.3253 24.9243C93.2873 24.9568 93.2331 24.9568 93.1896 24.9297C92.8857 24.7352 92.5708 24.5189 92.256 24.3676C90.3237 23.4379 88.2339 23.1406 86.0953 23.3676C75.9287 24.4541 75.0222 38.8865 85.3788 40.5676C87.6748 40.9406 90.0523 40.7838 92.1963 39.7838C92.5274 39.6325 92.8477 39.4162 93.1679 39.2216C93.1842 39.2108 93.2005 39.2108 93.2168 39.2162C93.575 39.3838 93.9875 39.9676 94.1938 40.2487C94.2047 40.2649 94.2209 40.2703 94.2427 40.2703C94.4706 40.2703 94.5086 40.2811 94.5086 40.2379L94.5792 35.1027C94.5792 35.0595 94.5466 35.0703 94.3186 35.0703C94.2969 35.0703 94.2861 35.0811 94.2807 35.1027C94.0255 36.1676 93.5424 37.1189 92.8314 37.9514C89.5529 41.8 83.8101 40.8757 81.7855 36.2811C80.461 33.2757 80.7379 29.5352 82.5019 26.746C85.7044 21.6865 92.7011 23.2919 94.2915 29.1135C94.3024 29.1514 94.3078 29.1406 94.5683 29.1243C94.6226 29.1189 94.6009 29.1243 94.6009 23.8595C94.6118 23.8379 94.5955 23.827 94.3566 23.827Z" fill="white"/>
<path d="M132.157 31.5838C130.664 31 129.22 30.6216 128.048 30.0919C126.539 29.4108 125.611 28.3243 125.861 26.5676C126.051 25.2216 126.892 24.3027 128.167 23.9514C131.137 23.1243 133.27 25.5243 134.144 28.0216C134.16 28.0649 134.182 28.0541 134.415 28.0541C134.469 28.0541 134.448 28.2865 134.448 23.7081C134.448 23.6595 134.431 23.6757 134.187 23.6757C134.144 23.6757 133.997 23.9892 133.536 24.4919C133.509 24.5243 133.454 24.5297 133.422 24.5027C131.701 23.2595 129.161 23.1622 127.18 23.7135C122.864 24.9189 122.436 30.5027 126.436 32.4324C127.63 33.0054 129.4 33.3946 131.12 34.1946C132.575 34.8703 133.21 36.0432 132.955 37.6216C132.553 40.0811 129.812 40.9405 127.701 40.227C127.18 40.0487 126.658 39.8378 126.241 39.5081C125.133 38.6432 124.281 37.2541 123.814 35.9459C123.809 35.9297 123.793 35.9189 123.776 35.9189H123.603C123.532 35.9189 123.559 35.9243 123.63 40.5838C123.63 40.627 123.651 40.6216 123.836 40.6216C123.858 40.6216 123.869 40.6162 123.885 40.6C124.01 40.427 124.498 39.7189 124.666 39.8216C126.067 40.6649 127.706 40.8324 129.313 40.8162C132.922 40.7892 134.871 38.9514 135.229 36.8649C135.653 34.4216 134.42 32.4649 132.157 31.5838Z" fill="white"/>
<path d="M119.852 40.3946C119.027 40.3622 118.332 40.0649 117.773 39.5027C117.377 39.1027 117.339 38.4162 117.328 37.8595C117.29 35.8865 117.225 28.3622 117.436 25.9027C117.529 24.8378 118.077 24.1946 119.092 23.9622C119.287 23.9189 119.521 23.9081 119.732 23.8919C119.776 23.8865 119.765 23.8649 119.765 23.6757C119.765 23.6162 119.765 23.6432 114.744 23.6432C114.722 23.6432 114.712 23.6541 114.701 23.6703C111.9 30.1946 109.023 36.4324 109.001 36.4432C108.98 36.4541 109.235 37.0162 103.351 23.6703C103.329 23.627 103.351 23.6432 98.3136 23.6432C98.2702 23.6432 98.281 23.6595 98.281 23.8811C98.281 23.8973 98.2919 23.9135 98.3136 23.9135C99.5946 24.0811 100.615 24.7514 100.642 26.1676C100.696 29.4649 100.669 32.7784 100.55 36.0757C100.528 36.7189 100.447 37.3568 100.311 37.9892C99.7846 40.4595 97.7654 40.2216 97.7654 40.4108C97.7654 40.6108 97.7545 40.6378 97.7979 40.6378H103.921C103.964 40.6378 103.953 40.6 103.948 40.4108C103.942 40.2378 101.44 40.5189 101.158 37.9189C101.098 37.3405 101.066 36.6757 101.06 35.9243C101.055 32.9243 101.066 29.9243 101.109 26.9189C101.131 25.3351 101.093 25.3027 101.114 25.2919C101.131 25.2865 104.16 31.9135 107.731 40.2C107.769 40.2865 107.894 40.2865 107.927 40.2C109.327 36.7135 110.613 33.9622 112.665 29.4865C114.625 25.2054 114.739 24.7243 114.739 24.9459C114.739 36.7892 114.793 37.573 114.511 38.7135C114.223 39.8811 112.861 40.3189 111.786 40.373C111.748 40.373 111.753 40.4 111.753 40.6108C111.753 40.6703 111.759 40.6432 119.863 40.6432C119.906 40.6432 119.895 40.6216 119.895 40.4432C119.906 40.4216 119.884 40.3946 119.852 40.3946Z" fill="white"/>
<path d="M71.1304 30.0325C67.8953 30.3352 64.264 30.0919 61.1646 29.027C61.1375 29.0162 67.5534 43.5297 67.5534 43.5243C67.5642 43.5352 67.5859 43.5297 67.5914 43.5189C70.3651 39.6865 71.6623 35.2054 71.1847 30.0811C71.1847 30.0487 71.163 30.0325 71.1304 30.0325Z" fill="white"/>
<path d="M51.5083 33.9892C51.2043 33.5568 50.1187 32.0865 49.6302 31.9946C49.4402 31.9568 48.5554 32.5892 48.3818 32.6811C45.9826 33.9946 43.1329 34.7189 40.4243 34.8649C34.8444 35.1676 32.6135 33.8811 32.6406 34.1514C33.5797 42.7676 40.0987 49.7838 48.7454 51.2C48.7617 51.2054 48.778 51.2 48.7943 51.1892C51.1772 49.573 51.3509 46.0973 51.4703 43.1946C51.5951 40.1514 51.6548 37.1027 51.6603 34.0541C51.6603 33.9838 51.5463 34.0379 51.5083 33.9892Z" fill="white"/>
</g>
<defs>
<clipPath id="clip0_221_5747">
<rect width="104" height="40" fill="white" transform="translate(32 12)"/>
</clipPath>
</defs>
</svg>
