<svg width="168" height="64" viewBox="0 0 168 64" fill="none" xmlns="http://www.w3.org/2000/svg">
<g clip-path="url(#clip0_221_5750)">
<path d="M2.02146 35.9788C2.0161 36.0003 2.01341 36.0217 2.01073 36.0445C2.00671 36.0701 2.00402 36.0942 2.00268 36.1197C2.00268 36.1264 2 36.133 2 36.1411C2 36.1558 2.00402 36.1693 2.00402 36.1827C2.00537 36.2082 2.00671 36.2324 2.01207 36.2578C2.0161 36.2806 2.02146 36.3021 2.02683 36.3235C2.03219 36.345 2.0389 36.3665 2.04695 36.3879C2.055 36.4094 2.06439 36.4308 2.07512 36.451C2.08451 36.4711 2.09524 36.4899 2.10731 36.51C2.11938 36.5288 2.1328 36.5476 2.14621 36.565C2.15962 36.5838 2.17438 36.6012 2.19048 36.6186C2.20523 36.6348 2.22267 36.6508 2.23877 36.6656C2.2562 36.6803 2.2723 36.6951 2.29108 36.7085C2.3112 36.7233 2.33266 36.7353 2.35413 36.7488C2.3662 36.7554 2.37693 36.7649 2.39034 36.7716L19.2731 45.2129C19.2797 45.2156 19.2864 45.2169 19.2918 45.2196C19.3012 45.2237 19.3092 45.229 19.3187 45.233C19.3267 45.237 19.3361 45.2384 19.3455 45.2424C19.3588 45.2478 19.3737 45.2518 19.387 45.2559C19.4005 45.2598 19.4138 45.2639 19.4273 45.2665C19.4354 45.2679 19.442 45.2719 19.4501 45.2733C19.4582 45.2746 19.4661 45.2746 19.4742 45.276C19.489 45.2787 19.5037 45.28 19.5198 45.2814C19.536 45.2827 19.552 45.284 19.5668 45.284C19.5802 45.284 19.595 45.284 19.6084 45.284C19.6245 45.284 19.6392 45.2827 19.6553 45.2814C19.6701 45.28 19.6848 45.2773 19.701 45.276C19.709 45.2746 19.717 45.2746 19.7251 45.2733C19.7332 45.2719 19.7398 45.2692 19.7479 45.2665C19.7613 45.2639 19.7747 45.2598 19.7882 45.2559C19.8015 45.2518 19.8163 45.2464 19.8297 45.2424C19.8391 45.2397 19.8471 45.237 19.8565 45.233C19.866 45.229 19.8739 45.2237 19.8834 45.2196C19.8901 45.2169 19.8968 45.2156 19.9021 45.2129L36.7848 36.7716C36.7983 36.7649 36.8076 36.7554 36.8211 36.7488C36.8425 36.7367 36.8639 36.7233 36.8841 36.7085C36.9029 36.6951 36.9189 36.6803 36.9364 36.6656C36.9538 36.6508 36.9699 36.6348 36.9847 36.6186C37.0008 36.6012 37.0142 36.5838 37.0289 36.565C37.0424 36.5476 37.0558 36.5288 37.0679 36.51C37.0799 36.4912 37.0893 36.4711 37.1001 36.451C37.1108 36.4308 37.1202 36.4094 37.1283 36.3879C37.1362 36.3665 37.143 36.345 37.1484 36.3235C37.1537 36.3021 37.1591 36.2806 37.1631 36.2578C37.1671 36.2324 37.1685 36.2082 37.1711 36.1827C37.1725 36.1693 37.1752 36.1558 37.1752 36.1411C37.1752 36.1344 37.1738 36.1277 37.1725 36.1197C37.1711 36.0942 37.1685 36.0701 37.1644 36.0445C37.1617 36.023 37.159 36.0003 37.1537 35.9788C37.1484 35.9587 37.1416 35.9372 37.1349 35.9171C37.1269 35.893 37.1188 35.8675 37.1067 35.8447C37.1041 35.8379 37.1028 35.8312 37.1001 35.8259L28.6573 18.9432C28.6533 18.9352 28.6467 18.9298 28.6426 18.9231C28.6185 18.8788 28.5903 18.8372 28.5568 18.7997C28.5487 18.7903 28.542 18.7809 28.534 18.7728C28.495 18.7326 28.4508 18.6964 28.4025 18.6655C28.3904 18.6575 28.3784 18.6521 28.3663 18.6454C28.3273 18.624 28.2858 18.6065 28.2429 18.5918C28.2281 18.5864 28.2134 18.5824 28.1986 18.5783C28.1449 18.5649 28.09 18.5555 28.0336 18.5555C28.0309 18.5555 28.0282 18.5542 28.0282 18.5542C28.0216 18.5542 28.0135 18.5569 28.0068 18.5569C27.9625 18.5582 27.9196 18.5622 27.878 18.5716C27.8646 18.5743 27.8512 18.581 27.8377 18.5837C27.8016 18.5944 27.7667 18.6065 27.7331 18.6213C27.7278 18.624 27.7211 18.6253 27.7157 18.628C27.7023 18.6347 27.6929 18.6441 27.6795 18.6508C27.658 18.6629 27.6366 18.6763 27.6165 18.691C27.5977 18.7044 27.5816 18.7192 27.5641 18.7339C27.5467 18.7487 27.5306 18.7648 27.5158 18.7809C27.4998 18.7983 27.4863 18.8158 27.4716 18.8345C27.4581 18.852 27.4448 18.8708 27.4327 18.8895C27.4206 18.9083 27.4112 18.9284 27.4005 18.9486C27.3898 18.9687 27.3803 18.9901 27.3723 19.0116C27.3643 19.0331 27.3589 19.0545 27.3522 19.076C27.3468 19.0975 27.3415 19.1189 27.3375 19.1417C27.3334 19.1672 27.3321 19.1914 27.3294 19.2168C27.328 19.2303 27.3253 19.2437 27.3253 19.2584V34.4429L20.086 27.2035C20.0524 27.1699 20.0161 27.1404 19.9773 27.1149C19.9611 27.1042 19.9424 27.0961 19.925 27.0868C19.9021 27.0747 19.8807 27.0613 19.8565 27.0505C19.8337 27.0412 19.8096 27.0358 19.7868 27.0291C19.7666 27.0237 19.7465 27.0157 19.7264 27.0116C19.6808 27.0022 19.6352 26.9982 19.5883 26.9982C19.5427 26.9982 19.4957 27.0036 19.4501 27.0116C19.4287 27.0157 19.4098 27.0237 19.3884 27.0291C19.3642 27.0358 19.3414 27.0412 19.3187 27.0505C19.2945 27.0599 19.273 27.0747 19.2502 27.0868C19.2328 27.0961 19.2154 27.1042 19.1979 27.1149C19.159 27.1404 19.1228 27.1699 19.0892 27.2035L11.8498 34.4429V19.2584C11.8498 19.2437 11.8458 19.2303 11.8458 19.2168C11.8445 19.1914 11.8431 19.1672 11.8377 19.1417C11.8337 19.1189 11.8283 19.0975 11.823 19.076C11.8176 19.0545 11.8109 19.0331 11.8028 19.0116C11.7948 18.9901 11.7854 18.9687 11.7746 18.9486C11.7653 18.9284 11.7545 18.9097 11.7425 18.8895C11.7304 18.8708 11.717 18.852 11.7036 18.8345C11.6902 18.8158 11.6754 18.7983 11.6594 18.7809C11.6446 18.7648 11.6271 18.7487 11.611 18.7339C11.5936 18.7192 11.5775 18.7044 11.5587 18.691C11.5386 18.6763 11.5172 18.6642 11.4957 18.6508C11.4836 18.6441 11.4729 18.6347 11.4595 18.628C11.4541 18.6253 11.4473 18.624 11.4421 18.6213C11.4085 18.6052 11.3736 18.5944 11.3387 18.5837C11.324 18.5797 11.3105 18.573 11.2958 18.5703C11.2542 18.5609 11.2126 18.5569 11.1684 18.5555C11.1617 18.5569 11.1536 18.5542 11.1469 18.5542C11.1443 18.5542 11.1416 18.5555 11.1416 18.5555C11.0839 18.5555 11.0289 18.5649 10.9766 18.5783C10.9618 18.5824 10.9471 18.5877 10.9323 18.5918C10.8894 18.6052 10.8478 18.624 10.8089 18.6454C10.7968 18.6521 10.7848 18.6575 10.7726 18.6655C10.7244 18.6964 10.6801 18.7313 10.6412 18.7728C10.6332 18.7809 10.6265 18.7916 10.6184 18.7997C10.5849 18.8372 10.5567 18.8788 10.5326 18.9231C10.5285 18.9311 10.5218 18.9365 10.5178 18.9432L2.07512 35.8259C2.07243 35.8326 2.07109 35.8379 2.06841 35.8447C2.05768 35.8675 2.04963 35.893 2.04024 35.9171C2.03353 35.9372 2.02683 35.9574 2.02146 35.9788ZM10.8545 36.844L16.0242 42.0137L5.68478 36.844H10.8545ZM28.3194 36.844H33.489L23.1496 42.0137L28.3194 36.844ZM28.7312 35.4369V22.2376L35.3308 35.4369H28.7312ZM20.2898 42.8829V29.3966L27.0329 36.1398L20.2898 42.8829ZM18.884 42.8829L12.1409 36.1398L18.884 29.3966V42.8829ZM3.84307 35.4369L10.4427 22.2376V35.4369H3.84307Z" fill="#A3EC26"/>
</g>
<path d="M42.5404 26.4337C42.4702 26.1907 42.6093 26.0152 42.8536 26.0152H44.4548C44.5939 26.0152 44.733 26.1367 44.7681 26.2582L46.5785 33.2058H46.6474L49.4151 26.0327C49.4502 25.9288 49.5366 25.8423 49.7107 25.8423H50.024C50.1981 25.8423 50.2845 25.9288 50.3196 26.0327L53.1089 33.2058H53.1791L54.9545 26.2582C54.9896 26.1367 55.1287 26.0152 55.2678 26.0152H56.8689C57.1119 26.0152 57.2524 26.1893 57.1822 26.4337L53.892 38.1336C53.8569 38.2726 53.7178 38.3766 53.5787 38.3766H53.3007C53.144 38.3766 53.04 38.2888 53.0049 38.1849L49.889 30.299H49.8026L46.7203 38.1849C46.6676 38.2888 46.5988 38.3766 46.4246 38.3766H46.1465C46.0074 38.3766 45.8684 38.2713 45.8333 38.1336L42.5404 26.4337Z" fill="white"/>
<path d="M60.6306 26.348C60.6306 26.1738 60.7872 26.0172 60.9614 26.0172H62.5802C62.7543 26.0172 62.911 26.1738 62.911 26.348V37.8738C62.911 38.0479 62.7543 38.2045 62.5802 38.2045H60.9614C60.7872 38.2045 60.6306 38.0479 60.6306 37.8738V26.348Z" fill="white"/>
<path d="M67.5544 26.1555C67.5544 25.9814 67.711 25.8423 67.8851 25.8423H68.3198L75.5617 33.5365H75.5793V26.3473C75.5793 26.1731 75.7184 26.0165 75.9101 26.0165H77.5113C77.6855 26.0165 77.8421 26.1731 77.8421 26.3473V38.0634C77.8421 38.2375 77.6855 38.3766 77.5113 38.3766H77.0927L69.8158 30.3854H69.7982V37.8716C69.7982 38.0458 69.6592 38.2024 69.4674 38.2024H67.8838C67.7096 38.2024 67.553 38.0458 67.553 37.8716V26.1555H67.5544Z" fill="white"/>
<path d="M84.0954 28.1058H81.4316C81.2399 28.1058 81.1008 27.9492 81.1008 27.775V26.348C81.1008 26.1738 81.2399 26.0172 81.4316 26.0172H89.0394C89.2311 26.0172 89.3701 26.1738 89.3701 26.348V27.775C89.3701 27.9492 89.2311 28.1058 89.0394 28.1058H86.3757V37.8724C86.3757 38.0465 86.219 38.2032 86.0449 38.2032H84.4261C84.2519 38.2032 84.0954 38.0465 84.0954 37.8724V28.1058Z" fill="white"/>
<path d="M92.6199 26.348C92.6199 26.1738 92.7589 26.0172 92.9506 26.0172H100.036C100.228 26.0172 100.367 26.1738 100.367 26.348V27.775C100.367 27.9492 100.228 28.1058 100.036 28.1058H94.8826V30.9612H99.1827C99.3568 30.9612 99.5134 31.1179 99.5134 31.292V32.7366C99.5134 32.9283 99.3568 33.0674 99.1827 33.0674H94.8826V36.1146H100.036C100.228 36.1146 100.367 36.2712 100.367 36.4454V37.8738C100.367 38.0479 100.228 38.2045 100.036 38.2045H92.9506C92.7589 38.2045 92.6199 38.0479 92.6199 37.8738V26.348Z" fill="white"/>
<path d="M104.44 26.348C104.44 26.1738 104.579 26.0172 104.77 26.0172H109.75C111.838 26.0172 113.545 27.6886 113.545 29.761C113.545 31.3622 112.482 32.6678 110.969 33.278L113.354 37.6996C113.476 37.9264 113.354 38.2045 113.059 38.2045H111.231C111.074 38.2045 110.988 38.1181 110.952 38.0479L108.637 33.4346H106.705V37.8738C106.705 38.0479 106.548 38.2045 106.374 38.2045H104.773C104.581 38.2045 104.442 38.0479 104.442 37.8738V26.348H104.44ZM109.558 31.5701C110.48 31.5701 111.282 30.7695 111.282 29.7948C111.282 28.8727 110.481 28.1058 109.558 28.1058H106.72V31.5701H109.558Z" fill="white"/>
<path d="M118.734 26.1029C118.752 25.9638 118.856 25.8423 119.048 25.8423H119.326C119.465 25.8423 119.569 25.9112 119.621 26.0165L123.452 34.2345C123.487 34.2345 123.487 34.2345 123.504 34.2345L127.334 26.0165C127.387 25.9125 127.473 25.8423 127.63 25.8423H127.908C128.1 25.8423 128.204 25.9638 128.221 26.1029L130.276 37.8015C130.329 38.0444 130.189 38.2024 129.963 38.2024H128.379C128.223 38.2024 128.084 38.0634 128.049 37.9418L127.021 31.3439C127.004 31.3439 126.969 31.3439 126.969 31.3439L123.921 38.1862C123.886 38.2902 123.782 38.378 123.626 38.378H123.314C123.157 38.378 123.071 38.2902 123.018 38.1862L119.936 31.3439C119.936 31.3439 119.901 31.3439 119.883 31.3439L118.873 37.9418C118.856 38.0634 118.717 38.2024 118.56 38.2024H116.993C116.766 38.2024 116.627 38.0458 116.662 37.8015L118.734 26.1029Z" fill="white"/>
<path d="M133.865 26.348C133.865 26.1738 134.022 26.0172 134.196 26.0172H135.85C136.042 26.0172 136.18 26.1738 136.18 26.348V33.4684C136.18 34.9481 137.191 36.1146 138.705 36.1146C140.22 36.1146 141.248 34.9481 141.248 33.4859V26.348C141.248 26.1738 141.387 26.0172 141.578 26.0172H143.232C143.406 26.0172 143.563 26.1738 143.563 26.348V33.5899C143.563 36.2361 141.457 38.3773 138.705 38.3773C135.973 38.3773 133.865 36.2361 133.865 33.5899V26.348Z" fill="white"/>
<path d="M149.728 28.1058H147.064C146.873 28.1058 146.734 27.9492 146.734 27.775V26.348C146.734 26.1738 146.873 26.0172 147.064 26.0172H154.672C154.864 26.0172 155.003 26.1738 155.003 26.348V27.775C155.003 27.9492 154.864 28.1058 154.672 28.1058H152.009V37.8724C152.009 38.0465 151.852 38.2032 151.678 38.2032H150.059C149.885 38.2032 149.728 38.0465 149.728 37.8724V28.1058Z" fill="white"/>
<path d="M158.253 26.348C158.253 26.1738 158.392 26.0172 158.584 26.0172H165.669C165.86 26.0172 166 26.1738 166 26.348V27.775C166 27.9492 165.86 28.1058 165.669 28.1058H160.516V30.9612H164.816C164.99 30.9612 165.146 31.1179 165.146 31.292V32.7366C165.146 32.9283 164.99 33.0674 164.816 33.0674H160.516V36.1146H165.669C165.86 36.1146 166 36.2712 166 36.4454V37.8738C166 38.0479 165.86 38.2045 165.669 38.2045H158.584C158.392 38.2045 158.253 38.0479 158.253 37.8738V26.348Z" fill="white"/>
<defs>
<clipPath id="clip0_221_5750">
<rect width="35.5662" height="26.8915" fill="white" transform="translate(2 18.5542)"/>
</clipPath>
</defs>
</svg>
