<svg width="168" height="64" viewBox="0 0 168 64" fill="none" xmlns="http://www.w3.org/2000/svg">
<g clip-path="url(#clip0_221_5748)">
<path opacity="0.972" fill-rule="evenodd" clip-rule="evenodd" d="M70.2753 13.9496C70.841 13.9496 71.4065 13.9496 71.9722 13.9496C74.0245 14.1456 75.8545 14.9019 77.462 16.2185C76.8157 17.2062 76.1336 18.1642 75.4158 19.0924C74.0854 18.1344 72.6048 17.563 70.974 17.3782C70.0594 17.3439 69.3773 17.7136 68.9278 18.4874C68.743 19.3071 69.0257 19.8953 69.7762 20.2521C71.3628 20.7873 72.9599 21.2915 74.5674 21.7647C77.6879 23.1137 78.6694 25.4162 77.5119 28.6723C76.8166 30.1081 75.702 31.0325 74.1681 31.4454C71.198 32.1427 68.4032 31.7057 65.7836 30.1345C65.2718 29.802 64.8061 29.4155 64.3862 28.9748C65.0881 28.0267 65.8367 27.1191 66.6321 26.2521C68.0961 27.5121 69.7929 28.218 71.7226 28.3698C72.3356 28.3311 72.9179 28.1799 73.4694 27.916C74.2482 27.2184 74.3146 26.4789 73.669 25.6975C73.2976 25.4427 72.8984 25.241 72.4713 25.0924C71.4154 24.7586 70.3508 24.456 69.2772 24.1849C65.4871 23.0987 64.2394 20.6617 65.5341 16.874C66.1335 15.7643 67.0152 14.9744 68.1792 14.5042C68.8719 14.2473 69.5706 14.0625 70.2753 13.9496Z" fill="white"/>
<path opacity="0.977" fill-rule="evenodd" clip-rule="evenodd" d="M53.3068 14.0504C54.5292 14.018 55.7437 14.0516 56.95 14.1513C59.3623 19.8992 61.7744 25.6471 64.1866 31.395C62.857 31.5125 61.5261 31.5294 60.194 31.4454C59.6456 30.203 59.1466 28.9425 58.6968 27.6639C56.3003 27.6303 53.9048 27.6639 51.5101 27.7647C51.011 28.9748 50.5119 30.1849 50.0129 31.395C48.6832 31.5125 47.3524 31.5294 46.0203 31.4454C48.4914 25.6628 50.9202 19.8645 53.3068 14.0504ZM55.0036 18.9916C55.1817 19.0999 55.2982 19.2679 55.353 19.4958C55.9988 21.0673 56.6143 22.6471 57.1996 24.2353C55.7685 24.2521 54.3378 24.2353 52.9075 24.1849C53.6204 22.4589 54.3191 20.7278 55.0036 18.9916Z" fill="white"/>
<path opacity="0.971" fill-rule="evenodd" clip-rule="evenodd" d="M29.9502 14.2521C31.2478 14.2521 32.5454 14.2521 33.843 14.2521C33.843 16.5042 33.843 18.7563 33.843 21.0084C36.1055 21.0084 38.3679 21.0084 40.6304 21.0084C40.6304 18.7563 40.6304 16.5042 40.6304 14.2521C41.928 14.2521 43.2256 14.2521 44.5232 14.2521C44.5232 20 44.5232 25.7479 44.5232 31.4958C43.2256 31.4958 41.928 31.4958 40.6304 31.4958C40.6304 29.2101 40.6304 26.9244 40.6304 24.6387C38.3679 24.6387 36.1055 24.6387 33.843 24.6387C33.843 26.9244 33.843 29.2101 33.843 31.4958C32.5454 31.4958 31.2478 31.4958 29.9502 31.4958C29.9502 25.7479 29.9502 20 29.9502 14.2521Z" fill="white"/>
<path opacity="0.984" fill-rule="evenodd" clip-rule="evenodd" d="M80.0574 14.2521C81.3217 14.2521 82.586 14.2521 83.8503 14.2521C83.8503 16.5042 83.8503 18.7563 83.8503 21.0084C86.1129 21.0084 88.3753 21.0084 90.6378 21.0084C90.6378 18.7563 90.6378 16.5042 90.6378 14.2521C91.9354 14.2521 93.233 14.2521 94.5306 14.2521C94.5306 20 94.5306 25.7479 94.5306 31.4958C93.233 31.4958 91.9354 31.4958 90.6378 31.4958C90.6378 29.2101 90.6378 26.9244 90.6378 24.6387C88.3753 24.6387 86.1129 24.6387 83.8503 24.6387C83.8503 26.9244 83.8503 29.2101 83.8503 31.4958C82.586 31.4958 81.3217 31.4958 80.0574 31.4958C80.0574 25.7479 80.0574 20 80.0574 14.2521Z" fill="white"/>
<path opacity="0.975" fill-rule="evenodd" clip-rule="evenodd" d="M100.619 14.2521C102.449 14.2353 104.279 14.2521 106.109 14.3025C103.462 16.993 100.801 19.6653 98.1237 22.3193C97.1921 21.4454 96.2938 20.5378 95.4287 19.5966C97.161 17.813 98.8911 16.0315 100.619 14.2521Z" fill="white"/>
<path opacity="0.987" fill-rule="evenodd" clip-rule="evenodd" d="M107.407 14.2521C111.732 14.2521 116.057 14.2521 120.383 14.2521C120.383 15.395 120.383 16.5378 120.383 17.6807C117.322 17.6807 114.261 17.6807 111.2 17.6807C111.2 18.8235 111.2 19.9664 111.2 21.1092C113.895 21.1092 116.59 21.1092 119.285 21.1092C119.285 22.2521 119.285 23.395 119.285 24.5378C116.59 24.5378 113.895 24.5378 111.2 24.5378C111.2 25.7143 111.2 26.8907 111.2 28.0672C114.294 28.0672 117.388 28.0672 120.483 28.0672C120.483 29.2101 120.483 30.353 120.483 31.4958C116.124 31.4958 111.765 31.4958 107.407 31.4958C107.407 25.7479 107.407 20 107.407 14.2521Z" fill="white"/>
<path opacity="0.979" fill-rule="evenodd" clip-rule="evenodd" d="M137.95 14.2521C137.95 14.2857 137.95 14.3193 137.95 14.3529C135.748 17.7579 133.569 21.1864 131.412 24.6387C131.362 26.9241 131.345 29.2098 131.362 31.4958C130.098 31.4958 128.834 31.4958 127.569 31.4958C127.586 29.2434 127.569 26.9914 127.519 24.7395C125.34 21.2605 123.161 17.7815 120.981 14.3025C122.479 14.2353 123.976 14.2353 125.473 14.3025C126.833 16.5294 128.181 18.7647 129.516 21.0084C130.85 18.7647 132.198 16.5294 133.558 14.3025C135.021 14.2521 136.486 14.2353 137.95 14.2521Z" fill="white"/>
<path opacity="0.978" fill-rule="evenodd" clip-rule="evenodd" d="M98.0239 23.5294C100.727 26.109 103.389 28.7477 106.009 31.4454C104.212 31.5126 102.416 31.5126 100.619 31.4454C98.889 29.6975 97.1588 27.9496 95.4287 26.2017C96.314 25.3242 97.1791 24.4335 98.0239 23.5294Z" fill="url(#paint0_linear_221_5748)"/>
<path opacity="0.921" fill-rule="evenodd" clip-rule="evenodd" d="M111.399 37.8487C112.164 37.8487 112.93 37.8487 113.695 37.8487C113.695 38.4874 113.695 39.1261 113.695 39.7647C112.93 39.7647 112.164 39.7647 111.399 39.7647C111.399 39.1261 111.399 38.4874 111.399 37.8487Z" fill="white"/>
<path opacity="0.92" fill-rule="evenodd" clip-rule="evenodd" d="M127.27 37.8487C128.002 37.8487 128.734 37.8487 129.466 37.8487C129.466 41.1765 129.466 44.5042 129.466 47.8319C128.734 47.8319 128.002 47.8319 127.27 47.8319C127.27 44.5042 127.27 41.1765 127.27 37.8487Z" fill="white"/>
<path opacity="0.95" fill-rule="evenodd" clip-rule="evenodd" d="M89.8391 38.1513C91.2058 37.9872 92.5034 38.2057 93.7319 38.8067C94.0631 39.0406 94.3625 39.3094 94.6302 39.6134C94.2395 40.183 93.7904 40.704 93.2827 41.1765C92.8055 40.7419 92.2565 40.4225 91.6358 40.2185C89.5449 39.9775 88.4137 40.9187 88.242 43.042C88.4137 45.1653 89.5449 46.1066 91.6358 45.8656C92.2944 45.6361 92.8768 45.2832 93.3825 44.8067C93.815 45.2437 94.2476 45.6807 94.6801 46.1177C94.7467 46.1849 94.7467 46.2521 94.6801 46.3193C93.358 47.7281 91.7443 48.249 89.8391 47.8824C87.3854 47.231 86.0878 45.6176 85.9463 43.042C86.1357 40.4835 87.4333 38.8532 89.8391 38.1513Z" fill="white"/>
<path opacity="0.964" fill-rule="evenodd" clip-rule="evenodd" d="M80.0573 38.6555C81.5666 39.9953 82.9973 41.4239 84.3493 42.9412C82.9727 44.4328 81.5587 45.895 80.1072 47.3277C80.0573 44.4371 80.0406 41.5464 80.0573 38.6555Z" fill="white"/>
<path opacity="0.964" fill-rule="evenodd" clip-rule="evenodd" d="M115.192 38.6555C115.891 38.6555 116.59 38.6555 117.288 38.6555C117.288 39.2605 117.288 39.8655 117.288 40.4706C117.854 40.4706 118.42 40.4706 118.985 40.4706C118.985 41.0756 118.985 41.6807 118.985 42.2857C118.42 42.2857 117.854 42.2857 117.288 42.2857C117.245 43.4699 117.295 44.6464 117.438 45.8151C117.951 46.0872 118.45 46.0536 118.935 45.7143C119.016 46.3444 118.999 46.9663 118.885 47.5798C117.885 48.0456 116.886 48.0456 115.891 47.5798C115.631 47.3844 115.448 47.1323 115.342 46.8235C115.199 45.3168 115.149 43.8042 115.192 42.2857C114.926 42.2857 114.66 42.2857 114.394 42.2857C114.394 41.6807 114.394 41.0756 114.394 40.4706C114.66 40.4706 114.926 40.4706 115.192 40.4706C115.192 39.8655 115.192 39.2605 115.192 38.6555Z" fill="white"/>
<path opacity="0.945" fill-rule="evenodd" clip-rule="evenodd" d="M98.024 40.3698C99.3503 40.212 100.465 40.6154 101.368 41.5798C101.581 41.9562 101.714 42.3595 101.767 42.7899C101.817 44.4702 101.834 46.1509 101.817 47.8319C101.118 47.8319 100.42 47.8319 99.7209 47.8319C99.737 47.6275 99.7204 47.4259 99.671 47.2269C98.6463 47.9767 97.5316 48.128 96.3272 47.6807C95.1718 46.8971 94.8557 45.8383 95.3789 44.5042C96.0658 43.6051 96.9807 43.2018 98.1238 43.2941C98.6984 43.2724 99.2473 43.3733 99.7708 43.5966C99.8013 42.9711 99.5185 42.551 98.9223 42.3361C98.0214 42.2028 97.1563 42.3205 96.3272 42.6891C96.0975 42.1442 95.8978 41.5896 95.7283 41.0252C96.475 40.6942 97.2403 40.4756 98.024 40.3698ZM98.2236 44.605C98.763 44.5964 99.2788 44.6972 99.7708 44.9076C99.8248 45.9121 99.3424 46.4163 98.3235 46.4202C97.43 46.3779 97.114 45.9409 97.3752 45.1092C97.6146 44.8463 97.8973 44.6782 98.2236 44.605Z" fill="white"/>
<path opacity="0.959" fill-rule="evenodd" clip-rule="evenodd" d="M105.111 49.9496C104.412 49.9496 103.714 49.9496 103.015 49.9496C103.015 46.7899 103.015 43.6302 103.015 40.4706C103.714 40.4706 104.412 40.4706 105.111 40.4706C105.095 40.7749 105.111 41.0774 105.161 41.3781C105.9 40.4803 106.848 40.1609 108.006 40.4202C109.758 41.0165 110.623 42.2603 110.601 44.1513C110.509 46.766 109.178 48.0097 106.608 47.8823C106.027 47.7651 105.544 47.4793 105.161 47.0252C105.111 47.9994 105.094 48.9742 105.111 49.9496ZM106.409 42.1849C107.695 42.1902 108.394 42.8457 108.505 44.1513C108.255 45.8556 107.356 46.3933 105.81 45.7647C105.117 45.063 104.934 44.2394 105.261 43.2941C105.504 42.7623 105.887 42.3926 106.409 42.1849Z" fill="white"/>
<path opacity="0.948" fill-rule="evenodd" clip-rule="evenodd" d="M122.279 40.3697C123.37 40.2745 124.368 40.5266 125.274 41.1261C125.669 41.5725 125.919 42.0935 126.022 42.6891C126.072 44.4031 126.089 46.1173 126.072 47.8319C125.407 47.8319 124.741 47.8319 124.076 47.8319C124.092 47.5943 124.076 47.359 124.026 47.1261C122.996 47.9781 121.849 48.1629 120.582 47.6807C119.278 46.6945 119.062 45.5011 119.934 44.1008C120.636 43.5003 121.451 43.2314 122.379 43.2941C122.954 43.2724 123.503 43.3733 124.026 43.5966C124.055 42.9662 123.772 42.546 123.178 42.3361C122.291 42.2006 121.442 42.3183 120.632 42.6891C120.343 42.1501 120.177 41.5787 120.133 40.9748C120.831 40.6686 121.546 40.467 122.279 40.3697ZM122.479 44.605C123.023 44.5707 123.539 44.6715 124.026 44.9076C124.082 45.9105 123.599 46.4147 122.579 46.4202C121.691 46.3825 121.375 45.9455 121.63 45.1092C121.87 44.8463 122.153 44.6782 122.479 44.605Z" fill="white"/>
<path opacity="0.971" fill-rule="evenodd" clip-rule="evenodd" d="M111.499 40.4706C112.198 40.4706 112.896 40.4706 113.595 40.4706C113.595 42.9243 113.595 45.3782 113.595 47.8319C112.896 47.8319 112.198 47.8319 111.499 47.8319C111.499 45.3782 111.499 42.9243 111.499 40.4706Z" fill="white"/>
</g>
<defs>
<linearGradient id="paint0_linear_221_5748" x1="98.0239" y1="23.479" x2="106.141" y2="31.4633" gradientUnits="userSpaceOnUse">
<stop stop-color="#1A83C6"/>
<stop offset="1" stop-color="#14B0E6"/>
</linearGradient>
<clipPath id="clip0_221_5748">
<rect width="108" height="36" fill="white" transform="translate(30 14)"/>
</clipPath>
</defs>
</svg>
