<svg width="168" height="64" viewBox="0 0 168 64" fill="none" xmlns="http://www.w3.org/2000/svg">
<path d="M34.4283 23.6086L34.3852 23.2203C34.2989 21.2789 33.4792 20.8475 29.9414 20.8475C25.3251 20.8475 24.3328 21.2789 24.3328 23.2635C24.3328 24.9029 24.8936 25.5069 26.6194 25.6795C27.0077 25.7227 27.4822 25.7658 28 25.7658C28.4745 25.8089 29.3805 25.8521 30.718 25.8952C35.6363 26.1109 37.1032 26.3698 38.2249 27.3621C39.1741 28.1818 39.5192 29.131 39.5192 30.8998C39.5192 33.4453 39.0878 34.6533 38.0092 35.4299C36.456 36.5085 34.644 36.8105 29.7257 36.8105C24.8505 36.8105 23.2542 36.6379 21.7873 35.9045C20.2773 35.171 19.5007 33.7473 19.5007 31.6764C19.5007 31.5039 19.5439 31.2018 19.5439 30.7704H24.0739V31.2018C24.0739 33.2296 24.8074 33.9199 27.094 33.9199H29.2943L29.9846 33.963C34.1695 33.963 34.8597 33.5316 34.8597 31.2018C34.8597 29.3467 34.2557 28.9584 31.3651 28.829L28.7765 28.6995C23.7288 28.4838 22.7796 28.3544 21.5285 27.5347C20.2342 26.7149 19.6733 25.5069 19.6733 23.5223C19.6733 21.1926 20.2773 19.8552 21.6148 19.1217C23.2973 18.2589 25.0231 18 29.6394 18C33.7812 18 35.5069 18.2157 36.8443 18.906C38.3112 19.6394 38.9584 20.9337 38.9584 22.8752C38.9584 23.0478 38.9584 23.2635 38.9584 23.5655H34.4283V23.6086Z" fill="white"/>
<path d="M51.5993 36.7674H46.8535V18.1726H51.5993V36.7674Z" fill="white"/>
<path d="M80.6349 26.8874L80.678 27.4051L80.7212 30.3389V30.5977C80.7212 33.704 80.1603 34.912 78.3483 35.8612C76.7951 36.6809 75.0263 36.8966 70.0648 36.8966C65.017 36.8966 63.2913 36.6378 61.6087 35.6023C59.7104 34.3943 59.0632 32.8412 59.0632 29.476V29.0877C59.1064 28.1385 59.1064 27.4483 59.1064 27.06C59.1495 23.7379 59.2358 23.1771 59.6241 21.9691C60.0124 20.8042 60.8321 19.8982 61.9107 19.251C63.7659 18.2156 65.1464 18.043 70.0648 18.043C75.6734 18.043 76.752 18.1724 78.3483 18.949C79.2974 19.4236 80.0309 20.2002 80.3329 21.1062C80.6349 21.9691 80.678 22.1848 80.7212 23.8242H75.9754L75.9323 23.4791C75.7597 21.365 75.0694 21.063 70.0216 21.063C67.3036 21.063 66.0093 21.2356 65.2759 21.7102C64.3267 22.3142 64.0247 23.1339 64.0247 25.4205L63.9816 27.2757L64.0247 29.6917C64.0679 31.892 64.2836 32.6686 65.1896 33.2295C66.0093 33.7472 67.3467 33.9198 70.3236 33.9198C75.3283 33.9198 76.1048 33.4883 76.1048 30.2094C76.1048 30.08 76.1048 29.8643 76.1048 29.5623H69.8059V26.9305H80.6349V26.8874Z" fill="white"/>
<path d="M87.3218 18H98.1939C102.94 18 105.873 20.3297 105.873 24.4715V30.4684C105.873 34.6533 102.94 36.9399 98.1939 36.9399H87.3218V18ZM98.237 32.8844C100.351 32.8844 101.257 31.6333 101.257 30.5978V24.3421C101.257 23.2635 100.351 22.0555 98.237 22.0555H91.9813V32.8844H98.237Z" fill="#66C1FF"/>
<path d="M114.934 22.0555H107.686V18H126.798V22.0555H119.593V36.9399H114.934V22.0555Z" fill="#66C1FF"/>
<path d="M87.365 40.5207H88.3141V45.2233H87.365V40.5207Z" fill="#66C1FF"/>
<path d="M89.5225 40.5207H90.3853L92.1973 43.4544V40.5207H93.1465V45.2233H92.2836L90.4716 42.2896V45.2233H89.5225V40.5207Z" fill="#66C1FF"/>
<path d="M93.8369 40.8227V40.5207H94.7429L95.9509 43.929L97.1158 40.5207H98.0218V40.8227L96.3824 45.2233H95.4332L93.8369 40.8227Z" fill="#66C1FF"/>
<path d="M98.7549 40.5207H101.818V41.3404H99.704V42.4621H101.516V43.2387H99.704V44.3604H101.818V45.1802H98.7549V40.5207Z" fill="#66C1FF"/>
<path d="M102.466 43.6701H103.415C103.415 44.2741 103.976 44.4035 104.364 44.4035C104.882 44.4035 105.14 44.1878 105.14 43.8858C105.14 43.5407 104.752 43.4544 104.062 43.1955L103.846 43.1092C103.242 42.8935 102.595 42.5915 102.595 41.7718C102.595 40.9089 103.242 40.3481 104.321 40.3481C105.313 40.3481 106.09 40.7795 106.09 41.9444H105.14C105.14 41.4266 104.752 41.2541 104.321 41.2541C103.846 41.2541 103.544 41.4266 103.544 41.7287C103.544 42.0738 103.889 42.1601 104.321 42.3327L104.493 42.4189C105.313 42.7209 106.09 43.023 106.09 43.8858C106.09 44.7055 105.486 45.3095 104.278 45.3095C103.285 45.3095 102.466 44.7918 102.466 43.6701Z" fill="#66C1FF"/>
<path d="M107.945 41.3404H106.607V40.5207H110.188V41.3404H108.894V45.2233H107.945V41.3404Z" fill="#66C1FF"/>
<path d="M112.776 43.7564L111.87 42.2033V45.2233H110.964V40.5207H111.87L113.122 42.5916L114.373 40.5207H115.279V45.2233H114.373V42.2033L113.467 43.7564H112.776Z" fill="#66C1FF"/>
<path d="M116.401 40.5207H119.464V41.3404H117.35V42.4621H119.162V43.2387H117.35V44.3604H119.464V45.1802H116.401V40.5207Z" fill="#66C1FF"/>
<path d="M120.37 40.5207H121.232L123.045 43.4544V40.5207H123.994V45.2233H123.131L121.319 42.2896V45.2233H120.37V40.5207Z" fill="#66C1FF"/>
<path d="M126.022 41.3404H124.685V40.5207H128.266V41.3404H126.971V45.2233H126.022V41.3404Z" fill="#66C1FF"/>
<path d="M128.74 43.6701H129.689C129.689 44.2741 130.25 44.4035 130.638 44.4035C131.156 44.4035 131.414 44.1878 131.414 43.8858C131.414 43.5407 131.026 43.4544 130.336 43.1955L130.12 43.1092C129.516 42.8935 128.869 42.5915 128.869 41.7718C128.869 40.9089 129.516 40.3481 130.595 40.3481C131.587 40.3481 132.364 40.7795 132.364 41.9444H131.414C131.414 41.4266 131.026 41.2541 130.595 41.2541C130.12 41.2541 129.818 41.4266 129.818 41.7287C129.818 42.0738 130.163 42.1601 130.595 42.3327L130.767 42.4189C131.587 42.7209 132.364 43.023 132.364 43.8858C132.364 44.7055 131.76 45.3095 130.552 45.3095C129.559 45.3095 128.74 44.7918 128.74 43.6701Z" fill="#66C1FF"/>
<path d="M133.14 44.2309H134.003V44.6192L133.442 45.9998H132.838L133.14 44.2309Z" fill="#66C1FF"/>
<path d="M136.506 40.5207H137.455V45.2233H136.506V40.5207Z" fill="#66C1FF"/>
<path d="M138.62 40.5207H139.483L141.295 43.4544V40.5207H142.244V45.2233H141.381L139.569 42.2896V45.2233H138.62V40.5207Z" fill="#66C1FF"/>
<path d="M143.279 43.627V42.117C143.279 41.0384 143.926 40.4344 145.134 40.4344C146.04 40.4344 146.86 40.9089 146.86 42.0738V42.1601H145.911V42.0738C145.911 41.513 145.479 41.2972 145.048 41.2972C144.487 41.2972 144.228 41.5992 144.228 42.0307V43.6701C144.228 44.1447 144.487 44.4036 145.048 44.4036C145.479 44.4036 145.911 44.1878 145.911 43.627V43.5407H146.86V43.6701C146.86 44.835 146.04 45.3096 145.134 45.3096C143.926 45.3096 143.279 44.7056 143.279 43.627Z" fill="#66C1FF"/>
<path d="M147.55 44.2309H148.499V45.18H147.55V44.2309Z" fill="#66C1FF"/>
</svg>
