<svg width="168" height="64" viewBox="0 0 168 64" fill="none" xmlns="http://www.w3.org/2000/svg">
<path d="M77.9102 27.5547C77.9727 27.6914 77.9922 27.8242 78.0625 27.9649C80.3672 32.7188 84.0391 33.7774 84.1055 33.7891C84.3516 33.8399 84.1953 33.8399 85.1484 34.1211C85.5273 34.2305 86.4922 34.4102 86.8867 34.4375C87.3008 34.4649 87.6914 34.4805 88.0586 34.4805C90.332 34.4805 92.0117 33.6797 92.0195 33.6758C92.1563 33.6016 98.6914 31.1211 98.6914 23.7109C98.6914 21.582 98.0391 20.2149 97.9961 19.9492C97.9805 19.8399 96.4414 16.1367 93.4688 14.6133C93.3789 14.5664 93.3008 14.4922 93.2031 14.4375C90.7461 13.0781 88.9141 13.125 87.8594 13.125C86.3516 13.125 86.2539 13.1953 84.8555 13.5469C84.4922 13.6406 84.0898 13.7813 83.7617 13.9258C80.6133 15.293 77.4688 18.4102 77.2227 23.5508C77.2188 23.6367 77.2148 23.7227 77.2148 23.8047C77.2148 25.5313 77.7617 27.2305 77.9102 27.5547ZM82.25 23.6484C82.25 21.0742 84.4219 18.082 88.0234 18.082C88.3047 18.082 89.4883 18.0859 90.7344 18.7891C92.9648 20.0547 93.3594 21.9453 93.4453 22.1484C93.4883 22.25 93.5156 22.3438 93.5313 22.4297C93.6563 23.1133 93.6992 23.543 93.6992 23.875C93.6992 24.3047 93.625 24.5781 93.5469 25.0274C93.1445 27.3867 90.7539 29.5117 88.0586 29.5117C87.875 29.5117 87.6641 29.5039 87.4219 29.4883C87.0781 29.4688 86.7266 29.3516 86.3828 29.293C86.2031 29.2617 86.0898 29.168 85.9219 29.1172C83.8047 28.4727 82.2539 26.0234 82.25 24.1016C82.25 23.9492 82.25 23.7969 82.25 23.6484Z" fill="white"/>
<path d="M122.879 23.7734C122.879 17.8242 118.57 14.8906 116.352 13.9453C116.215 13.8867 116.113 13.8125 115.961 13.7773C115.574 13.6914 114.48 13.125 112.184 13.125C106.281 13.125 101.441 17.9141 101.441 23.8164C101.441 24.0273 101.492 25.3555 101.684 25.9922C101.762 26.2617 101.781 26.5156 101.879 26.793C101.945 26.9766 102 27.1602 102.051 27.3477C102.129 27.6445 104.445 34.4922 112.277 34.4922C116.602 34.5 122.879 31.0898 122.879 23.7734ZM117.922 23.707C117.922 27.1992 115.18 29.5352 112.207 29.5352C109.289 29.5352 106.469 27.2656 106.469 23.7617C106.469 23.2383 106.551 22.8711 106.688 22.2695C106.77 21.9023 107.793 18.7383 111.098 18.2266C111.496 18.1641 111.848 18.1172 112.234 18.1172C116.363 18.1172 117.543 21.8437 117.664 22.1367C117.711 22.2461 117.742 22.3437 117.758 22.4297C117.918 23.2773 117.922 23.3906 117.922 23.707Z" fill="white"/>
<path d="M69.8125 33.3594C69.9453 33.0977 69.9922 32.8008 70.0938 32.5273C70.1133 32.4727 72.7383 24.0195 72.7383 23.8594C72.7383 23.8594 72.7383 23.8594 72.7383 23.8555C72.6523 23.7383 72.7109 23.6641 72.668 23.6641C71.6758 23.6602 70.6836 23.6602 69.6953 23.6602C67.3477 23.6602 67.6719 23.3945 67.2617 24.9766C67.2305 25.0977 67.1641 25.1953 67.1328 25.3203C67.0078 25.8516 66.9961 25.6914 66.8008 26.5391C66.7969 26.5547 66.7852 26.5664 66.7695 26.5664C66.6562 26.5664 66.4219 25.9883 66.3711 25.8789C66.2734 25.6797 66.2227 25.4453 66.0977 25.2383C66.0352 25.1367 66.0078 24.9453 65.9414 24.8125C65.9336 24.7969 65.3945 23.6211 65.332 23.3867C65.3008 23.2617 65.207 23.1328 65.1602 23.0234C65.0781 22.832 64.9961 22.6367 64.918 22.4414C64.8555 22.2852 64.7266 22.0742 64.6719 21.8594C64.6289 21.6836 64.5195 21.5391 64.4531 21.375C64.0352 20.2891 63.1445 18.1562 60.4688 18.1562C60.2188 18.1562 59.9688 18.1758 59.7305 18.207C57.3555 18.5273 56.6094 21.0078 56.6055 21.0117C56.5586 21.1133 56.457 21.2422 56.4219 21.3867C56.3359 21.7266 55.3242 23.7734 55.0312 24.6211C55.0156 24.6719 54.9609 24.7188 54.9375 24.7695C54.8789 24.918 54.8086 25.0586 54.7305 25.1953C54.6758 25.2891 54.6719 25.4062 54.6211 25.5117C54.293 26.2188 54.1523 26.5781 54.1406 26.5859C54.1289 26.5977 54.1211 26.6016 54.1133 26.6016C54.1016 26.6016 54.0938 26.5938 54.0859 26.5781C54.0625 26.5352 54.0273 26.4805 54.0156 26.4336C53.9062 26.0078 50.2969 14.0664 50.2422 13.8633C50.1953 13.6914 50.1133 13.2422 49.8594 13.2422C44.9844 13.25 45 13.2539 44.9844 13.2773C44.9375 13.3477 44.918 13.4102 44.918 13.4766C44.918 13.6406 45.0312 13.7891 45.0703 13.9648C45.2148 14.6445 45.2305 14.5195 45.2656 14.6289C45.5977 15.6211 48.6758 25.6992 48.7578 25.9141C48.8047 26.0313 48.8359 26.1367 48.8594 26.2344C48.8906 26.375 49.3984 28.0469 49.4375 28.1406C49.5273 28.3438 49.5664 28.5664 49.6406 28.7656C49.6836 28.8828 49.7227 29.0039 49.7539 29.1289C49.9062 29.7422 50.5664 31.7188 50.668 32.0898C50.9375 33.0625 51.1523 34.293 52.8125 34.293C53.7266 34.293 54.3633 34.2969 54.8164 34.2969C55.5977 34.2969 55.8398 34.2891 56.0312 34.2461C57.0625 34.0117 57.3477 33.0898 57.375 32.9805C57.4219 32.7891 57.4922 32.7305 57.8594 31.8047C57.8828 31.7422 57.9336 31.6953 57.9531 31.6289C58.0859 31.1562 60.1445 26.2344 60.1445 26.2305C60.2031 26.0938 60.2812 25.6836 60.4805 25.6836C60.5469 25.6836 62.3906 30.2461 62.3945 30.25C62.4375 30.3906 62.4922 30.5273 62.5703 30.6523C62.6484 30.7852 62.6523 30.9336 62.7266 31.082C62.832 31.2812 62.8867 31.5 62.9766 31.6875C63.4805 32.7188 63.6016 34.0391 64.957 34.293C65.1484 34.3281 65.4219 34.3359 66.3672 34.3359C68.1055 34.3359 69.2227 34.5078 69.8125 33.3594Z" fill="white"/>
<path d="M75.9844 13.7031C76.0156 13.625 76.0352 13.5547 76.0352 13.4844C76.0352 13.4102 76.0117 13.3398 75.9531 13.2773C75.9375 13.2578 75.9141 13.25 75.8906 13.25C75.3594 13.25 74.8242 13.25 74.293 13.25C73.2266 13.25 72.1641 13.25 71.0938 13.25C70.7969 13.25 70.6992 13.6016 70.6602 13.8516C70.6445 13.9453 70.2539 15.1289 70.2227 15.2578C70.1133 15.6875 68.6758 20.1992 68.5977 20.5859C68.5781 20.6797 68.457 20.8594 68.457 20.9883C68.457 21.1758 68.4531 21.1289 71.5156 21.1289C72.0859 21.1289 72.6563 21.1289 73.2266 21.1289C73.5195 21.1289 73.6797 21.0977 73.7383 20.7969C73.8008 20.4805 74.3906 18.8242 74.4766 18.4219C74.5234 18.207 74.6172 18.0195 74.6797 17.8086C74.9141 17.0273 75.1797 16.2539 75.4023 15.4688C75.4375 15.3477 75.5 15.2422 75.5313 15.1211C75.5586 15.0156 75.8945 13.9414 75.9844 13.7031Z" fill="white"/>
<path d="M95.8516 40.293C95.3438 40.293 94.5117 40.457 94.2773 40.5664C94.1758 40.6133 94.0742 40.6445 93.9648 40.6602C93.8711 40.6758 93.7812 40.7539 93.6953 40.793C92.8828 41.1562 90.6484 42.5156 90.6484 45.625C90.6484 46.0547 90.6953 46.4883 90.8125 46.8828C90.8789 47.0938 90.9063 47.3125 91.0039 47.5156C91.082 47.6797 91.1211 47.8672 91.1953 48.0117C91.7773 49.1289 92.7422 50.0508 93.9297 50.4961C94.5742 50.7383 95.2227 50.8516 95.8477 50.8516C98.6836 50.8516 101.102 48.5547 101.102 45.5898C101.102 42.7148 98.9805 40.293 95.8516 40.293ZM99.5547 45.6211C99.5547 45.9766 99.5195 46.3398 99.418 46.6563C99.3516 46.8672 99.3125 47.1133 99.2109 47.3086C99.1406 47.4375 98.5586 48.6953 97.3477 49.125C97.2539 49.1563 97.1406 49.2656 97.0781 49.2773C96.6758 49.3555 96.2656 49.4414 95.8555 49.4414C95.7852 49.4414 95.7148 49.4375 95.6445 49.4336C92.6172 49.1953 92.2031 46.3164 92.2031 45.5547C92.2031 43.9805 92.9922 42.5391 94.6094 41.9141C95.0273 41.7539 95.625 41.7148 95.8789 41.7148C96.4531 41.7148 97.0078 41.8438 97.543 42.0977C98.1797 42.4023 99.3867 43.5586 99.5234 44.9648C99.5391 45.1719 99.5547 45.3945 99.5547 45.6211Z" fill="white"/>
<path d="M54.9336 40.4492C54.7148 40.4492 54.5 40.4492 54.2812 40.4492C53.4844 40.4492 53.7266 40.4062 53.7266 47.7031C53.7266 47.7148 53.7148 47.9102 53.7031 47.9102C53.5508 47.9102 48.0977 40.793 47.8398 40.6016C47.6953 40.4961 47.5117 40.4453 47.3203 40.4453C47 40.4453 46.6719 40.5937 46.5195 40.8711C46.4414 41.0156 46.4258 40.9883 46.4258 42.957C46.4258 44.2969 46.4336 46.5625 46.4336 50.4375C46.4336 50.5898 46.5039 50.6523 46.6563 50.6641C46.7773 50.6719 47.0195 50.6914 47.2617 50.6914C47.5195 50.6914 47.7812 50.668 47.8984 50.5859C47.9258 50.5664 47.9297 49.3906 47.9297 47.9766C47.9297 46.6055 47.9219 45.0117 47.9219 44.0312C47.9219 43.4687 47.9258 43.1094 47.9297 43.1094C48.25 43.1094 53.6133 50.5859 54.2148 50.6797C54.2734 50.6875 54.3281 50.6914 54.3789 50.6914C54.6562 50.6914 54.8828 50.5703 55.0586 50.3281C55.1484 50.2031 55.168 50.2266 55.168 48.2617C55.168 46.9297 55.1602 44.6836 55.1602 40.8594C55.1602 40.6914 55.1602 40.4492 54.9336 40.4492Z" fill="white"/>
<path d="M61.4648 49.2734C60.2344 49.2734 59.4609 49.2773 59.4609 49.2773C59.3945 49.2773 59.3398 49.2227 59.3398 49.1563V46.375C59.3398 46.2773 59.3906 46.2266 59.4883 46.2266C61.1563 46.2266 62.8203 46.2266 64.4844 46.2266C64.5977 46.2266 64.6758 46.1445 64.6797 46.1016C64.6914 45.8516 64.6953 45.625 64.6953 45.4219C64.6953 44.6289 64.8047 44.832 61.4844 44.832C60.8047 44.832 60.1289 44.832 59.457 44.832C59.3945 44.832 59.3438 44.7812 59.3438 44.7187C59.3438 43.9102 59.3398 43.3477 59.3398 42.9492C59.3398 41.9805 59.3516 41.9961 59.3945 41.8867C59.4063 41.8594 59.4063 41.8516 60.1133 41.8516C60.5547 41.8516 61.2734 41.8555 62.4453 41.8555C65.332 41.8555 65.3359 41.9414 65.3398 41.5781C65.3398 41.5039 65.3398 41.4336 65.3398 41.3594C65.3398 41.1094 65.3359 40.8594 65.3281 40.6055C65.3281 40.582 65.3203 40.582 65.2344 40.4805C65.2148 40.457 65.0313 40.4492 64.8125 40.4492C64.3672 40.4492 64.75 40.457 63.3477 40.457C61.5 40.457 60.3594 40.4531 59.6445 40.4531C57.8438 40.4531 57.8047 40.3555 57.8047 42.3008C57.8047 45.1836 57.8008 46.9844 57.8008 48.1172C57.8008 50.0703 57.8086 50.043 57.8594 50.168C57.9766 50.4687 58.2383 50.668 58.5664 50.668C59.5781 50.668 60.5898 50.668 61.5977 50.668C62.7773 50.668 63.957 50.668 65.1406 50.668C65.3359 50.668 65.4023 50.5977 65.4063 50.4023C65.4102 50.2188 65.4141 50.0352 65.4141 49.8477C65.4141 49.7539 65.4141 49.6641 65.4141 49.5703C65.4102 49.1836 65.4375 49.2734 61.4648 49.2734Z" fill="white"/>
<path d="M74.2266 40.4453C73.9414 40.4453 73.5586 40.457 73.3516 40.457C72.4141 40.457 71.6094 40.457 70.9219 40.457C67.2734 40.457 66.8672 40.4531 66.8242 40.4531C66.7109 40.4531 66.5938 40.5664 66.5938 40.6953C66.5938 40.8828 66.5898 41.0703 66.5898 41.2578C66.5898 41.3789 66.5898 41.4961 66.5898 41.6172C66.5898 41.7305 66.6367 41.7734 66.7187 41.8359C66.7344 41.8477 66.7539 41.8555 66.7734 41.8555C66.7773 41.8555 66.793 41.8555 66.8164 41.8555C67.1836 41.8555 69.6523 41.8555 69.7891 41.875C69.8398 41.8828 69.875 41.9258 69.875 41.9766L69.8789 50.5078C69.8789 50.5586 70 50.6719 70.1797 50.6758C70.3438 50.6758 70.4961 50.6758 70.6289 50.6758C70.8516 50.6758 71.0352 50.6758 71.1758 50.6719C71.3555 50.668 71.3711 50.5469 71.3711 50.4219C71.3711 49.2383 71.3789 46.8828 71.3789 42.1445C71.3789 41.7578 71.3516 41.8633 74.3711 41.8594C74.6484 41.8594 74.6758 41.8008 74.6875 41.5391C74.6914 41.4023 74.7031 41.2383 74.7031 41.0781C74.7031 40.8242 74.6797 40.5781 74.5781 40.4727C74.5625 40.4492 74.418 40.4453 74.2266 40.4453Z" fill="white"/>
<path d="M90.1211 40.4492C89.8789 40.4492 89.6758 40.4453 89.5039 40.4453C89.2773 40.4453 89.1133 40.4453 89.0117 40.4492C88.7148 40.457 88.6797 40.6445 88.5898 40.875C88.3711 41.4375 88.1953 42.0313 88.0039 42.6055C87.9375 42.8008 87.8008 43.1445 87.7266 43.4258C87.6875 43.5703 87.5937 43.6602 87.5625 43.8164C87.5273 43.9844 86.9531 45.6211 86.9492 45.625C86.8789 45.7969 86.8555 45.9805 86.7852 46.1445C86.625 46.5156 86.1172 48.1211 86.1133 48.1211C85.8828 48.1211 84.5 43.3594 83.582 40.7617C83.4844 40.4805 83.6484 40.4297 82.832 40.4297C82.5586 40.4297 82.2969 40.4688 82.2148 40.6719C82.1523 40.832 81.2305 43.7109 81.1875 43.8125C81.1211 43.9727 81.0977 44.1406 81.0352 44.3008C80.9961 44.4063 80.2461 46.6016 80.2461 46.6055C80.1797 46.8984 80.0508 47.1562 79.9844 47.4414C79.8984 47.8281 79.6836 48.1016 79.6719 48.1016C79.6211 48.1016 79.5391 47.6758 79.4258 47.3984C79.293 47.0703 79.1797 46.7383 79.0859 46.3984C79.0625 46.3125 79.0039 46.2266 78.9727 46.1367C78.8125 45.6406 78.1992 43.7852 78.0742 43.5195C78.043 43.4531 77.7344 42.4805 77.625 42.2109C77.5586 42.0547 77.5391 41.8594 77.4648 41.6875C77.3789 41.4805 77.3398 41.3203 77.2813 41.1289C77.2344 40.9766 77.1328 40.8047 77.0938 40.6211C77.0742 40.5156 77.0469 40.4609 76.9336 40.457C76.6953 40.4492 76.4531 40.4453 76.2148 40.4453C75.5547 40.4453 75.5508 40.4531 75.5508 40.4688C75.5508 40.4844 75.582 40.5156 75.582 40.5508C75.582 40.5742 75.5703 40.5977 75.5234 40.6172C75.5117 40.625 75.5039 40.6367 75.5039 40.6602C75.5039 40.7695 75.6328 41.0586 75.8008 41.5508C75.8359 41.6563 75.9258 41.793 75.9453 41.8828C76 42.1406 76.1172 42.3633 76.1875 42.6133C76.2031 42.6719 77.3047 45.7148 77.3398 45.875C77.3672 46 77.4141 46.0977 77.4648 46.2109C77.5469 46.3867 77.5508 46.5664 77.6602 46.7461C77.7227 46.8516 77.7422 46.9922 77.7812 47.1055C77.9492 47.5781 78.1172 48.0508 78.2812 48.5195C78.3086 48.5977 78.3828 48.707 78.3945 48.7734C78.4258 48.957 78.8477 50.0977 78.8633 50.1602C78.918 50.3516 79.1016 50.6445 79.2969 50.6953C79.4219 50.7266 79.5508 50.7461 79.6719 50.7461C80.2656 50.7461 80.4414 50.4258 80.6992 49.4531C80.7227 49.3711 81.0664 48.5117 81.1445 48.1641C81.1719 48.0469 81.2656 47.9375 81.2852 47.8398C81.3398 47.5586 82.7852 43.3516 82.8125 43.3516C82.9336 43.3516 82.9648 43.4805 83.3398 44.6445C83.3867 44.7852 83.4766 44.9258 83.5156 45.0938C83.5547 45.2539 83.6055 45.4063 83.668 45.5547C83.7578 45.7617 83.7813 45.9805 83.8828 46.1875C83.9805 46.3906 84.0039 46.6055 84.0977 46.8164C84.1953 47.0352 84.2266 47.2617 84.3203 47.4844C84.375 47.6094 84.9453 49.3867 84.9922 49.5C85.2031 49.9883 85.2031 50.7422 86.0234 50.7422C86.1406 50.7422 86.2578 50.7227 86.3594 50.6914C86.793 50.5547 86.8594 50.0156 87.2227 49.0898C87.4375 48.5352 89.8477 41.5859 90.0859 41.0273C90.1367 40.9062 90.2109 40.7812 90.2109 40.6562C90.2305 40.5586 90.168 40.4492 90.1211 40.4492ZM76.9883 40.5547C76.9844 40.5469 76.9805 40.5391 76.9805 40.5313C76.9805 40.5391 76.9844 40.543 76.9883 40.5547ZM77.0469 40.5938C77.0469 40.5977 77.0469 40.5977 77.0469 40.6016C77.0469 40.5977 77.0469 40.5938 77.0469 40.5938C77.0469 40.5859 77.043 40.5781 77.0391 40.5664C77.0469 40.5742 77.0469 40.5859 77.0469 40.5938ZM83.418 40.5352C83.4219 40.543 83.4297 40.5586 83.4414 40.5703C83.4297 40.5547 83.4219 40.5391 83.418 40.5352Z" fill="white"/>
<path d="M122 40.4727C122 40.4609 121.988 40.4453 121.973 40.4453C120.312 40.4453 120.328 40.4531 120.312 40.4687C119.453 41.1953 115.023 45.9492 114.949 45.9492C114.938 45.9492 114.926 45.9453 114.918 45.9336C114.879 45.8789 114.871 45.8711 114.871 45.5078C114.871 45.1445 114.879 44.4258 114.879 42.957C114.879 40.5469 114.953 40.4883 114.609 40.4648C114.441 40.4531 114.27 40.4492 114.102 40.4492C113.402 40.4492 113.383 40.4844 113.367 40.5664C113.344 40.6836 113.34 40.6484 113.34 43.4141C113.34 44.8594 113.34 47.0742 113.34 50.4766C113.34 50.6953 113.59 50.6875 114.195 50.6875C114.527 50.6875 114.863 50.6602 114.863 50.5586V50.5547C114.863 50.5508 114.871 50.5312 114.871 48.1055C114.879 47.5273 121.992 41.0234 122 40.4727Z" fill="white"/>
<path d="M108.664 46.8555C108.574 46.7383 108.555 46.6289 108.555 46.6211C108.555 46.4297 110.055 46.4844 110.801 44.7383C110.969 44.3437 111.031 43.7383 111.031 43.5547C111.031 43.2539 110.961 42.9453 110.887 42.6602C110.836 42.4609 110.715 42.2734 110.621 42.082C110.422 41.6641 109.652 40.4531 106.859 40.4531C105.703 40.4531 104.945 40.4492 104.445 40.4492C103.52 40.4492 103.449 40.457 103.324 40.5078C102.703 40.7539 102.844 40.6484 102.844 46.4297C102.844 47.7773 102.844 49.1211 102.848 50.4688C102.848 50.6992 103.062 50.6641 103.414 50.6641C103.633 50.6641 103.805 50.6641 103.934 50.6602C104.184 50.6563 104.336 50.6523 104.336 50.3438C104.336 50.3242 104.336 49.5312 104.336 48.4883C104.336 47.9961 104.336 47.5078 104.336 47.0195C104.336 46.8828 104.395 46.8633 105.281 46.8633C105.617 46.8633 106.07 46.8672 106.68 46.8672C106.848 46.8672 106.93 46.9336 107.023 47.0586C110.125 51.2383 109.418 50.668 110.691 50.668C111.41 50.668 111.41 50.6602 111.41 50.6367C111.41 50.6211 111.391 50.6094 111.355 50.5781C111.348 50.5703 111.344 50.5625 111.344 50.5547C111.344 50.5195 111.391 50.5156 111.398 50.5156C111.426 50.5156 111.445 50.5352 111.453 50.5352C111.457 50.5352 111.461 50.5312 111.461 50.5273V50.5234C110.492 49.3359 109.59 48.0781 108.664 46.8555ZM105.184 45.5C104.414 45.5 104.445 45.4883 104.352 45.4492C104.336 45.4414 104.332 45.4414 104.332 44.7969C104.332 44.332 104.336 43.5273 104.336 42.1367C104.336 41.9727 104.418 41.8906 104.578 41.8906C106.727 41.8906 109.527 41.4922 109.527 43.625C109.527 45.7422 106.887 45.5 105.184 45.5Z" fill="white"/>
<path d="M48.0312 43.3086C48.0352 43.3086 48.0391 43.3047 48.0391 43.293C48.0391 43.2578 48 43.1719 47.9766 43.1719C47.9727 43.1719 47.9688 43.1758 47.9688 43.1875C47.9688 43.2227 48.0078 43.3086 48.0312 43.3086Z" fill="white"/>
<path d="M82.8359 43.4141C82.832 43.4141 82.8281 43.418 82.8281 43.4219C82.8281 43.4375 82.8672 43.5 82.8906 43.5C82.8945 43.5 82.8984 43.4961 82.8984 43.4883C82.8945 43.4727 82.8672 43.4141 82.8359 43.4141Z" fill="white"/>
<path d="M118.867 46.332C118.766 46.2031 118.59 46.0078 118.551 46.0078C118.492 46.0078 117.562 46.9375 117.562 46.9766C117.562 47.0586 117.859 47.4141 120.219 50.3711C120.25 50.4102 120.316 50.4766 120.426 50.5742C120.52 50.6602 120.59 50.6797 120.695 50.6797C120.773 50.6797 120.891 50.6641 121.418 50.6641C121.621 50.6641 121.813 50.668 121.949 50.668C122.117 50.668 122.203 50.6797 122.203 50.6016C122.207 50.5234 122.184 50.4961 118.867 46.332Z" fill="white"/>
</svg>
