<svg width="168" height="64" viewBox="0 0 168 64" fill="none" xmlns="http://www.w3.org/2000/svg">
<g clip-path="url(#clip0_221_5746)">
<path d="M90.061 31.1536C90.0015 31.1536 89.9761 31.179 89.9761 31.2382C89.9931 33.4985 89.9591 33.4985 90.027 33.4985C97.115 33.4985 96.7075 33.4816 96.7075 33.5324C96.6906 33.9557 96.6566 34.4044 96.5463 34.7938C95.9775 36.6478 94.0591 37.3758 92.2935 37.4774C86.6485 37.7991 85.7827 30.0954 89.0593 27.4626C90.0949 26.6329 91.521 26.3366 92.8113 26.5906C94.2798 26.87 95.2305 27.8605 95.7993 29.2319C95.8078 29.2573 95.8332 29.2742 95.8672 29.2657C98.592 28.7663 98.4138 28.8086 98.3968 28.7663C97.463 26.0911 95.1371 24.1948 92.251 24.0086H91.6398C85.9695 24.2287 83.7369 29.4097 84.7726 34.3451C86.2071 41.1769 94.2034 41.397 96.402 37.3081C96.4359 37.2488 96.4699 37.2657 96.6906 37.2657C96.767 37.2657 96.733 37.2657 96.733 39.8224C96.733 39.8901 96.733 39.8647 99.0419 39.8647C99.1183 39.8647 99.0844 39.8647 99.0844 31.2128C99.0674 31.1197 99.0674 31.1536 90.061 31.1536Z" fill="white"/>
<path d="M106.851 24.1013C103.592 24.6346 101.427 26.9542 100.858 30.1288C100.035 34.7172 102.182 39.3733 107.259 39.9405C111.418 40.3976 114.881 37.9341 115.561 33.7944C116.596 27.4706 112.394 23.204 106.851 24.1013ZM109.398 37.35C107.496 37.7733 105.544 37.2145 104.39 35.5976C102.463 32.9055 103.091 27.3944 107.131 26.6071C109.933 26.0569 112.318 27.6061 112.904 30.3828C113.489 33.1764 112.573 36.6389 109.398 37.35Z" fill="white"/>
<path d="M15.0809 24.3386C15.0045 24.3386 15.03 24.3556 15.03 39.3989C15.03 39.4751 15.0384 39.4497 17.8057 39.4497C17.8821 39.4497 17.8567 39.4328 17.8567 24.3894C17.8567 24.3132 17.8482 24.3386 15.0809 24.3386Z" fill="white"/>
<path d="M47.1765 24.3386C41.0307 24.3217 41.0307 24.3048 41.0307 24.381C41.0307 39.4497 41.0137 39.4497 41.0562 39.4497C42.9406 39.4582 44.8251 39.4497 46.7096 39.4328C56.7092 39.3651 56.4036 24.364 47.1765 24.3386ZM48.263 36.7831C47.3377 37.0286 43.6791 36.9524 43.6791 36.9185V26.9376C43.6791 26.8952 43.7131 26.8614 43.7555 26.8529C44.7657 26.819 45.7589 26.819 46.7435 26.8529C49.4514 26.963 51.2425 28.6561 51.4547 31.3566C51.6245 33.6254 50.6907 36.1397 48.263 36.7831Z" fill="white"/>
<path d="M64.7649 31.6868C65.045 31.6614 65.3166 31.6444 65.5968 31.636C67.7359 31.5598 68.5508 29.7989 68.2197 27.9111C67.7783 25.4138 65.5458 24.3386 63.203 24.3386C55.9877 24.3386 55.9877 24.3048 55.9877 24.381C55.9877 39.4497 55.9452 39.4497 56.0386 39.4497C58.6361 39.4497 58.6361 39.4751 58.6361 39.4074C58.6361 33.7778 58.6021 33.7778 58.6785 33.7778C60.2574 33.7693 61.8278 33.7693 63.4067 33.7778C64.5102 33.7862 65.3166 33.9556 65.3081 35.2339C65.2997 36.0889 65.2997 37.4857 65.3081 39.3989C65.3081 39.4667 65.3082 39.4413 67.7444 39.4413C67.8293 39.4413 67.7953 39.4413 67.7868 34.6243C67.7868 33.6847 67.4473 32.6603 66.4541 32.364C66.0042 32.2286 65.3166 32.2878 64.7734 32.2878C64.7139 32.2878 64.7309 32.2794 64.7309 31.7206C64.7309 31.7037 64.7394 31.6952 64.7649 31.6868ZM63.3303 31.272C58.6531 31.2889 58.6531 31.3312 58.6531 31.2212C58.6361 26.836 58.6021 26.836 58.704 26.836L63.3218 26.819C64.5187 26.819 65.6307 27.6741 65.6307 29.0963C65.6307 30.2899 64.5951 31.2635 63.3303 31.272Z" fill="white"/>
<path d="M79.1616 24.3386C74.8918 24.3386 74.9088 24.3217 74.8918 24.3725L69.6204 39.4074C69.6204 39.4836 69.6204 39.4497 72.498 39.4497C72.5489 39.4497 72.532 39.4582 73.8816 35.437C73.8986 35.3862 73.8816 35.4032 80.1717 35.4032C80.2226 35.4032 80.2057 35.3947 81.5469 39.4159C81.5638 39.4667 81.5554 39.4497 84.2887 39.4497C84.3226 39.4497 84.3396 39.4159 84.3311 39.3905C79.1955 24.3302 79.221 24.3386 79.1616 24.3386ZM79.3144 33.0751H74.7645C74.7305 33.0667 74.7135 33.0328 74.7305 33.0074C76.7593 26.3026 76.7253 26.3196 76.8017 26.3196C77.3874 26.3196 77.379 26.3111 77.3959 26.3619L79.3738 33.0243C79.3738 33.0497 79.3483 33.0751 79.3144 33.0751Z" fill="white"/>
<path d="M130.654 24.3386C128.065 24.3386 128.056 24.3048 128.056 24.3979V36.9439C128.056 37.0201 128.005 37.0032 127.581 36.9947C127.479 36.9947 122.012 24.3556 121.902 24.364C117.411 24.3556 117.403 24.3217 117.403 24.4148C117.403 39.4582 117.36 39.4582 117.462 39.4582C120.051 39.4582 120.06 39.4921 120.06 39.3989C120.06 26.8106 120.017 26.8106 120.119 26.8106C120.501 26.8106 120.51 26.8021 120.527 26.8444C126.18 39.4667 126.155 39.4582 126.214 39.4582C130.713 39.4497 130.713 39.4921 130.713 39.3905C130.704 24.3386 130.747 24.3386 130.654 24.3386Z" fill="white"/>
<path d="M143.352 24.3386C132.631 24.3386 132.631 24.2878 132.631 24.4063L132.64 39.382C132.657 39.5175 132.784 39.382 133.387 39.4497C133.675 39.4836 134.295 39.4667 135.246 39.4243C135.28 39.4243 135.297 39.4074 135.297 39.3735C135.297 32.6011 135.271 32.6011 135.339 32.6011H142.521C142.639 32.6011 142.597 32.6011 142.597 30.3069C142.597 30.2815 142.58 30.2476 142.538 30.2476C135.288 30.2476 135.288 30.2815 135.288 30.2053V26.9291C135.288 26.8783 135.314 26.8444 135.373 26.8444L143.335 26.836C143.395 26.836 143.395 26.836 143.395 24.381C143.395 24.3556 143.369 24.3386 143.352 24.3386Z" fill="white"/>
<path d="M162.995 24.3386C162.936 24.3386 159.608 30.6878 159.54 30.6878C158.946 30.6878 158.972 30.6963 158.955 30.6709C155.559 24.3386 155.576 24.3386 155.542 24.3386C152.41 24.3386 152.546 24.3217 152.588 24.3894C156.926 32.0085 156.917 32 156.951 32C157.944 31.9915 157.944 31.9746 157.944 32.0254C157.944 39.4159 157.919 39.4243 157.978 39.4243C160.593 39.4243 160.593 39.4497 160.593 39.3905C160.593 31.9746 160.567 31.9746 160.627 31.9746H161.603C161.645 31.9746 165.958 24.381 165.958 24.3725C165.958 24.3217 165.941 24.3386 162.995 24.3386Z" fill="white"/>
<path d="M147.656 37.1048C147.554 37.1048 147.597 37.0794 147.605 24.4233C147.605 24.3894 147.58 24.364 147.546 24.364C144.88 24.3725 144.88 24.3386 144.88 24.4317C144.88 39.4497 144.838 39.4497 144.94 39.4497L155.007 39.4582C155.101 39.4582 155.067 39.4582 155.067 37.164C155.067 37.054 155.067 37.0963 147.656 37.1048Z" fill="white"/>
<path d="M2 26.3026V29.2571L9.51242 31.7884C9.61429 31.8222 9.69068 31.9661 9.54638 32.0085C7.02526 32.8635 4.51263 33.7016 2 34.5312V37.4857C12.2882 33.8455 12.2712 33.8963 12.2712 33.7862V30.0106C12.2712 29.9513 12.2797 29.9767 2 26.3026Z" fill="white"/>
<path d="M20.5985 29.9598C20.5221 29.9852 20.5475 29.9598 20.5475 33.7862C20.5475 33.8878 20.5306 33.8455 30.7763 37.4688C30.7933 37.4773 30.8188 37.4603 30.8188 37.4349C30.8188 34.5143 30.8442 34.5397 30.7763 34.5143C23.1875 32 23.2299 32.0423 23.196 31.9492C23.1705 31.8815 23.2045 31.8138 23.2724 31.7968L30.7763 29.2741C30.8527 29.2487 30.8188 29.2656 30.8188 26.3704C30.8188 26.3619 30.8188 26.3619 30.8188 26.3534C30.7848 26.2772 30.8018 26.3111 20.5985 29.9598Z" fill="white"/>
</g>
<defs>
<clipPath id="clip0_221_5746">
<rect width="164" height="16" fill="white" transform="translate(2 24)"/>
</clipPath>
</defs>
</svg>
